<svg width="18" height="18" viewBox="0 0 18 18" fill="none" xmlns="http://www.w3.org/2000/svg">
<path d="M8.16666 8.16699V4.83366H9.83332V8.16699H13.1667V9.83366H9.83332V13.167H8.16666V9.83366H4.83332V8.16699H8.16666ZM8.99999 17.3337C4.39749 17.3337 0.666656 13.6028 0.666656 9.00033C0.666656 4.39783 4.39749 0.666992 8.99999 0.666992C13.6025 0.666992 17.3333 4.39783 17.3333 9.00033C17.3333 13.6028 13.6025 17.3337 8.99999 17.3337ZM8.99999 15.667C10.7681 15.667 12.4638 14.9646 13.714 13.7144C14.9643 12.4641 15.6667 10.7684 15.6667 9.00033C15.6667 7.23222 14.9643 5.53652 13.714 4.28628C12.4638 3.03604 10.7681 2.33366 8.99999 2.33366C7.23188 2.33366 5.53619 3.03604 4.28594 4.28628C3.0357 5.53652 2.33332 7.23222 2.33332 9.00033C2.33332 10.7684 3.0357 12.4641 4.28594 13.7144C5.53619 14.9646 7.23188 15.667 8.99999 15.667Z" fill="#000099"/>
</svg>
