<svg width="21" height="21" viewBox="0 0 21 21" fill="none" xmlns="http://www.w3.org/2000/svg">
<path d="M10.5781 15.7083C10.8038 15.7083 10.9905 15.6345 11.138 15.4869C11.2856 15.3393 11.3594 15.1527 11.3594 14.927V10.2135C11.3594 10.0051 11.2813 9.82718 11.125 9.67961C10.9688 9.53204 10.7865 9.45825 10.5781 9.45825C10.3524 9.45825 10.1658 9.53204 10.0182 9.67961C9.87067 9.82718 9.79689 10.0138 9.79689 10.2395V14.953C9.79689 15.1614 9.87501 15.3393 10.0313 15.4869C10.1875 15.6345 10.3698 15.7083 10.5781 15.7083ZM10.5 7.53117C10.7431 7.53117 10.9471 7.45304 11.112 7.29679C11.2769 7.14054 11.3594 6.94089 11.3594 6.69784C11.3594 6.45478 11.2769 6.24645 11.112 6.07284C10.9471 5.89922 10.7431 5.81242 10.5 5.81242C10.257 5.81242 10.053 5.89922 9.88803 6.07284C9.7231 6.24645 9.64064 6.45478 9.64064 6.69784C9.64064 6.94089 9.7231 7.14054 9.88803 7.29679C10.053 7.45304 10.257 7.53117 10.5 7.53117ZM10.5 20.9166C9.02432 20.9166 7.65279 20.6518 6.38543 20.1223C5.11807 19.5928 4.01564 18.8593 3.07814 17.9218C2.14064 16.9843 1.40713 15.8819 0.877614 14.6145C0.348101 13.3471 0.0833435 11.9756 0.0833435 10.4999C0.0833435 9.04159 0.348101 7.67874 0.877614 6.41138C1.40713 5.14402 2.14064 4.04159 3.07814 3.10409C4.01564 2.16659 5.11807 1.42874 6.38543 0.890544C7.65279 0.352349 9.02432 0.083252 10.5 0.083252C11.9583 0.083252 13.3212 0.352349 14.5886 0.890544C15.8559 1.42874 16.9583 2.16659 17.8958 3.10409C18.8333 4.04159 19.5712 5.14402 20.1094 6.41138C20.6476 7.67874 20.9167 9.04159 20.9167 10.4999C20.9167 11.9756 20.6476 13.3471 20.1094 14.6145C19.5712 15.8819 18.8333 16.9843 17.8958 17.9218C16.9583 18.8593 15.8559 19.5928 14.5886 20.1223C13.3212 20.6518 11.9583 20.9166 10.5 20.9166ZM10.5 19.3541C12.9306 19.3541 15.0139 18.486 16.75 16.7499C18.4861 15.0138 19.3542 12.9305 19.3542 10.4999C19.3542 8.06936 18.4861 5.98603 16.75 4.24992C15.0139 2.51381 12.9306 1.64575 10.5 1.64575C8.06946 1.64575 5.98612 2.51381 4.25001 4.24992C2.5139 5.98603 1.64584 8.06936 1.64584 10.4999C1.64584 12.9305 2.5139 15.0138 4.25001 16.7499C5.98612 18.486 8.06946 19.3541 10.5 19.3541Z" fill="#898989"/>
</svg>
