<svg width="26" height="23" viewBox="0 0 26 23" fill="none" xmlns="http://www.w3.org/2000/svg">
<path d="M16.3523 9.35845C16.3523 6.72489 18.489 4.58743 21.1241 4.58743V1.70779C21.1241 0.764832 20.3601 0 19.4179 0H10.6735C9.73053 0 8.9657 0.764832 8.9657 1.70779V15.2998C8.9657 16.2412 9.73053 17.006 10.6735 17.006H19.4179C20.3601 17.006 21.1241 16.2412 21.1241 15.2998V14.131C18.489 14.131 16.3523 11.9951 16.3523 9.35845Z" fill="white"/>
<path d="M21.1198 13.2386C18.98 13.2386 17.2378 11.4964 17.2378 9.35502C17.2378 7.21599 18.9792 5.47461 21.1198 5.47461C23.2604 5.47461 25.0017 7.21599 25.0017 9.35502C25.0017 11.4964 23.2604 13.2386 21.1198 13.2386ZM21.1198 6.54178C19.5682 6.54178 18.3042 7.80348 18.3042 9.3558C18.3042 10.9089 19.5674 12.1722 21.1198 12.1722C22.6721 12.1722 23.9353 10.9089 23.9353 9.3558C23.9353 7.80348 22.6729 6.54178 21.1198 6.54178Z" fill="white"/>
<path d="M21.7717 10.1015L21.6756 11.0554C21.6381 11.4296 21.3866 11.6507 21.1155 11.6507C20.8452 11.6507 20.5936 11.4296 20.5553 11.0554L20.4592 10.1015C20.2077 9.90622 20.0413 9.60232 20.0413 9.25623C20.0413 8.66406 20.5225 8.18359 21.1155 8.18359C21.7092 8.18359 22.1904 8.66406 22.1904 9.25623C22.1904 9.60232 22.0248 9.90622 21.7717 10.1015Z" fill="white"/>
<path d="M17.9107 17.7763V18.095C17.9107 19.7231 15.8724 20.9973 13.2693 20.9973C11.0334 20.9973 8.85064 20.0606 7.28036 18.4278C5.44757 16.5208 4.42103 13.667 4.264 10.1483C5.79054 9.41313 6.92724 6.69365 6.92724 4.24915C6.92724 1.39295 5.37726 0 3.46401 0C1.54998 0 0 1.39295 0 4.24993C0 6.72958 1.16951 9.49595 2.72964 10.1827C2.89917 14.0951 4.07103 17.3068 6.17334 19.4919C8.03034 21.4254 10.617 22.5348 13.2685 22.5348C16.7904 22.5348 19.4458 20.6262 19.4458 18.0958V17.7771H17.9107V17.7763Z" fill="white"/>
</svg>
