<svg width="30" height="30" viewBox="0 0 30 30" fill="none" xmlns="http://www.w3.org/2000/svg">
<circle cx="15" cy="15" r="14.5" fill="#626262" stroke="#626262"/>
<path d="M17.5142 13.7688C17.5142 11.7937 19.1167 10.1906 21.0931 10.1906V8.03084C21.0931 7.32362 20.52 6.75 19.8134 6.75H13.2551C12.5479 6.75 11.9743 7.32362 11.9743 8.03084V18.2248C11.9743 18.9309 12.5479 19.5045 13.2551 19.5045H19.8134C20.52 19.5045 21.0931 18.9309 21.0931 18.2248V17.3483C19.1167 17.3483 17.5142 15.7463 17.5142 13.7688Z" fill="white"/>
<path d="M21.0898 16.6794C19.4849 16.6794 18.1783 15.3728 18.1783 13.7668C18.1783 12.1625 19.4843 10.8564 21.0898 10.8564C22.6952 10.8564 24.0013 12.1625 24.0013 13.7668C24.0013 15.3728 22.6952 16.6794 21.0898 16.6794ZM21.0898 11.6568C19.9261 11.6568 18.9781 12.6031 18.9781 13.7673C18.9781 14.9322 19.9256 15.8796 21.0898 15.8796C22.254 15.8796 23.2015 14.9322 23.2015 13.7673C23.2015 12.6031 22.2546 11.6568 21.0898 11.6568Z" fill="white"/>
<path d="M21.5788 14.3261L21.5067 15.0416C21.4786 15.3222 21.2899 15.488 21.0866 15.488C20.8839 15.488 20.6952 15.3222 20.6665 15.0416L20.5944 14.3261C20.4057 14.1797 20.2809 13.9517 20.2809 13.6922C20.2809 13.248 20.6419 12.8877 21.0866 12.8877C21.5319 12.8877 21.8928 13.248 21.8928 13.6922C21.8928 13.9517 21.7686 14.1797 21.5788 14.3261Z" fill="white"/>
<path d="M18.683 20.0822V20.3213C18.683 21.5423 17.1543 22.498 15.202 22.498C13.5251 22.498 11.888 21.7955 10.7103 20.5709C9.33568 19.1406 8.56577 17.0002 8.448 14.3612C9.5929 13.8099 10.4454 11.7702 10.4454 9.93686C10.4454 7.79471 9.28294 6.75 7.84801 6.75C6.41248 6.75 5.25 7.79471 5.25 9.93745C5.25 11.7972 6.12713 13.872 7.29723 14.387C7.42438 17.3213 8.30327 19.7301 9.88001 21.3689C11.2728 22.8191 13.2128 23.6511 15.2014 23.6511C17.8428 23.6511 19.8343 22.2197 19.8343 20.3219V20.0828H18.683V20.0822Z" fill="white"/>
</svg>
