<svg width="16" height="14" viewBox="0 0 16 14" fill="none" xmlns="http://www.w3.org/2000/svg">
<path d="M6.371 2.23499L4.871 3.66908H2V12.2736H14V3.66908H11.129L9.629 2.23499H6.371ZM5.75 0.800903H10.25L11.75 2.23499H14.75C14.9489 2.23499 15.1397 2.31054 15.2803 2.44501C15.421 2.57948 15.5 2.76186 15.5 2.95204V12.9907C15.5 13.1808 15.421 13.3632 15.2803 13.4977C15.1397 13.6322 14.9489 13.7077 14.75 13.7077H1.25C1.05109 13.7077 0.860322 13.6322 0.71967 13.4977C0.579018 13.3632 0.5 13.1808 0.5 12.9907V2.95204C0.5 2.76186 0.579018 2.57948 0.71967 2.44501C0.860322 2.31054 1.05109 2.23499 1.25 2.23499H4.25L5.75 0.800903ZM8 11.5566C6.90598 11.5566 5.85677 11.1411 5.08318 10.4015C4.3096 9.66187 3.875 8.65877 3.875 7.61282C3.875 6.56688 4.3096 5.56377 5.08318 4.82417C5.85677 4.08458 6.90598 3.66908 8 3.66908C9.09402 3.66908 10.1432 4.08458 10.9168 4.82417C11.6904 5.56377 12.125 6.56688 12.125 7.61282C12.125 8.65877 11.6904 9.66187 10.9168 10.4015C10.1432 11.1411 9.09402 11.5566 8 11.5566ZM8 10.1225C8.69619 10.1225 9.36387 9.85807 9.85616 9.38741C10.3484 8.91676 10.625 8.27842 10.625 7.61282C10.625 6.94722 10.3484 6.30888 9.85616 5.83823C9.36387 5.36758 8.69619 5.10317 8 5.10317C7.30381 5.10317 6.63613 5.36758 6.14384 5.83823C5.65156 6.30888 5.375 6.94722 5.375 7.61282C5.375 8.27842 5.65156 8.91676 6.14384 9.38741C6.63613 9.85807 7.30381 10.1225 8 10.1225Z" fill="white"/>
</svg>
