<svg width="18" height="18" viewBox="0 0 18 18" fill="none" xmlns="http://www.w3.org/2000/svg">
<path d="M8.99163 0.666626C4.39163 0.666626 0.666626 4.39996 0.666626 8.99996C0.666626 13.6 4.39163 17.3333 8.99163 17.3333C13.6 17.3333 17.3333 13.6 17.3333 8.99996C17.3333 4.39996 13.6 0.666626 8.99163 0.666626ZM8.99996 15.6666C5.31663 15.6666 2.33329 12.6833 2.33329 8.99996C2.33329 5.31663 5.31663 2.33329 8.99996 2.33329C12.6833 2.33329 15.6666 5.31663 15.6666 8.99996C15.6666 12.6833 12.6833 15.6666 8.99996 15.6666ZM9.41663 4.83329H8.16663V9.83329L12.5416 12.4583L13.1666 11.4333L9.41663 9.20829V4.83329Z" fill="#898989"/>
</svg>
