<svg width="18" height="18" viewBox="0 0 18 18" fill="none" xmlns="http://www.w3.org/2000/svg">
<path d="M6.5013 0.835938V2.5026H11.5013V0.835938H13.168V2.5026H16.5013C16.7223 2.5026 16.9343 2.5904 17.0906 2.74668C17.2468 2.90296 17.3346 3.11492 17.3346 3.33594V16.6693C17.3346 16.8903 17.2468 17.1022 17.0906 17.2585C16.9343 17.4148 16.7223 17.5026 16.5013 17.5026H1.5013C1.28029 17.5026 1.06833 17.4148 0.912046 17.2585C0.755766 17.1022 0.667969 16.8903 0.667969 16.6693V3.33594C0.667969 3.11492 0.755766 2.90296 0.912046 2.74668C1.06833 2.5904 1.28029 2.5026 1.5013 2.5026H4.83464V0.835938H6.5013ZM15.668 8.33594H2.33464V15.8359H15.668V8.33594ZM11.5313 9.2826L12.7096 10.4609L8.58464 14.5859L5.63797 11.6393L6.81797 10.4609L8.58547 12.2293L11.5313 9.2826ZM4.83464 4.16927H2.33464V6.66927H15.668V4.16927H13.168V5.0026H11.5013V4.16927H6.5013V5.0026H4.83464V4.16927Z" fill="#898989"/>
</svg>
