<svg width="26" height="18" viewBox="0 0 26 18" fill="none" xmlns="http://www.w3.org/2000/svg">
<path d="M23.8333 5.74992V3.58325H21.6667V5.74992H19.5V7.91659H21.6667V10.0833H23.8333V7.91659H26V5.74992H23.8333Z" fill="#898989"/>
<path d="M8.66666 8.99992C11.0608 8.99992 13 7.06075 13 4.66658C13 2.27242 11.0608 0.333252 8.66666 0.333252C6.27249 0.333252 4.33333 2.27242 4.33333 4.66658C4.33333 7.06075 6.27249 8.99992 8.66666 8.99992ZM8.66666 2.49992C9.85833 2.49992 10.8333 3.47492 10.8333 4.66658C10.8333 5.85825 9.85833 6.83325 8.66666 6.83325C7.47499 6.83325 6.49999 5.85825 6.49999 4.66658C6.49999 3.47492 7.47499 2.49992 8.66666 2.49992Z" fill="#898989"/>
<path d="M8.66667 10.0833C5.77417 10.0833 0 11.5349 0 14.4166V17.6666H17.3333V14.4166C17.3333 11.5349 11.5592 10.0833 8.66667 10.0833ZM15.1667 15.4999H2.16667V14.4274C2.38333 13.6474 5.74167 12.2499 8.66667 12.2499C11.5917 12.2499 14.95 13.6474 15.1667 14.4166V15.4999Z" fill="#898989"/>
<path d="M13.5525 0.387451C14.5492 1.53578 15.1667 3.03078 15.1667 4.66662C15.1667 6.30245 14.5492 7.79745 13.5525 8.94578C15.6758 8.67495 17.3333 6.87662 17.3333 4.66662C17.3333 2.45662 15.6758 0.658284 13.5525 0.387451Z" fill="#898989"/>
<path d="M17.9075 10.9824C18.8717 11.8816 19.5 13.0083 19.5 14.4166V17.6666H21.6667V14.4166C21.6667 12.8458 19.9442 11.6974 17.9075 10.9824Z" fill="#898989"/>
</svg>
