<svg width="30" height="30" viewBox="0 0 30 30" fill="none" xmlns="http://www.w3.org/2000/svg">
<circle cx="15" cy="15" r="14.5" fill="#626262" stroke="#626262"/>
<g clip-path="url(#clip0_4143_22979)">
<path fill-rule="evenodd" clip-rule="evenodd" d="M9.21899 21.0487L13.1606 21.8731C13.7518 22.1267 15.854 21.9365 16.3796 21.9365C17.8248 21.9365 17.8905 19.9072 16.6423 19.717C18.8759 19.6536 18.4161 17.6877 17.2993 17.4341C19.4672 17.4341 19.3358 15.4048 18.219 15.278H21.5037C21.8321 14.7706 22.0949 14.3902 22.3577 13.8828C22.6204 14.3902 22.8832 14.7706 23.2117 15.1511C24.2628 14.7706 24.1314 12.995 22.7518 12.995L15.2628 13.0585L16.6423 11.917C18.2847 10.7121 18.0219 8.11211 16.3796 9.31699C14.2117 10.6487 11.1241 12.2975 9.1533 13.8194C8.95622 13.9463 8.82483 14.1365 8.82483 14.5804C8.82483 16.4828 8.82483 18.4487 8.82483 20.3511C8.82483 20.6048 8.95622 20.9853 9.21899 21.0487Z" fill="white"/>
<path fill-rule="evenodd" clip-rule="evenodd" d="M8.49635 20.5415L6.32847 20.6049C6.13139 20.6049 6 20.4781 6 20.2878V14.2634C6 14.1366 6.13139 14.0098 6.26277 14.0098H8.49635V20.5415Z" fill="white"/>
<path fill-rule="evenodd" clip-rule="evenodd" d="M22.3577 19.2101C21.438 19.1467 20.781 18.4492 20.7153 17.5614C20.7153 16.2297 21.7007 15.5955 22.3577 14.3906C23.0803 15.5955 24 16.2297 24 17.5614C24 18.4492 23.2774 19.1467 22.3577 19.2101ZM22.1606 16.4199H22.5547V17.1175H23.2774V17.4979H22.5547V18.1955H22.1606V17.4979H21.438V17.1175H22.1606V16.4199ZM20.9781 17.4979C20.9781 17.054 21.1095 16.737 21.3066 16.3565C20.9124 17.4345 21.2409 18.6394 22.4891 18.9565C21.7007 19.0199 20.9781 18.2589 20.9781 17.4979Z" fill="white"/>
</g>
<defs>
<clipPath id="clip0_4143_22979">
<rect width="18" height="13" fill="white" transform="translate(6 9)"/>
</clipPath>
</defs>
</svg>
