<svg width="25" height="19" viewBox="0 0 25 19" fill="none" xmlns="http://www.w3.org/2000/svg">
<path fill-rule="evenodd" clip-rule="evenodd" d="M4.47078 16.734L9.94524 17.879C10.7664 18.2313 13.6861 17.967 14.416 17.967C16.4233 17.967 16.5146 15.1486 14.781 14.8844C17.8832 14.7963 17.2445 12.066 15.6934 11.7137C18.7044 11.7137 18.5219 8.89522 16.9708 8.71907H21.5328C21.989 8.01446 22.354 7.48601 22.719 6.7814C23.0839 7.48601 23.4489 8.01446 23.9051 8.54292C25.3649 8.01446 25.1825 5.54834 23.2664 5.54834L12.8649 5.63641L14.781 4.05105C17.062 2.37761 16.6971 -1.2335 14.416 0.439937C11.4051 2.28953 7.11677 4.5795 4.37954 6.69333C4.10582 6.86948 3.92334 7.1337 3.92334 7.75024C3.92334 10.3925 3.92334 13.1229 3.92334 15.7651C3.92334 16.1174 4.10582 16.6459 4.47078 16.734Z" fill="white"/>
<path fill-rule="evenodd" clip-rule="evenodd" d="M3.46715 16.0298L0.456204 16.1179C0.182482 16.1179 0 15.9417 0 15.6775V7.31031C0 7.13416 0.182482 6.95801 0.364964 6.95801H3.46715V16.0298Z" fill="white"/>
<path fill-rule="evenodd" clip-rule="evenodd" d="M22.719 14.1801C21.4416 14.092 20.5292 13.1232 20.438 11.8901C20.438 10.0405 21.8066 9.15977 22.719 7.48633C23.7227 9.15977 25 10.0405 25 11.8901C25 13.1232 23.9964 14.092 22.719 14.1801ZM22.4453 10.3048H22.9927V11.2736H23.9964V11.802H22.9927V12.7709H22.4453V11.802H21.4416V11.2736H22.4453V10.3048ZM20.803 11.802C20.803 11.1855 20.9854 10.7451 21.2592 10.2167C20.7117 11.714 21.1679 13.3874 22.9015 13.8278C21.8066 13.9159 20.803 12.859 20.803 11.802Z" fill="white"/>
</svg>
