<svg width="150" height="72" viewBox="0 0 150 72" fill="none" xmlns="http://www.w3.org/2000/svg">
<ellipse cx="35.4112" cy="2.91904" rx="2.91904" ry="2.91904" fill="#B463A6"/>
<ellipse cx="19.669" cy="7.7413" rx="2.91904" ry="2.91904" fill="#B463A6"/>
<ellipse cx="7.99716" cy="18.9093" rx="2.91904" ry="2.91904" fill="#B463A6"/>
<ellipse cx="2.91904" cy="34.1397" rx="2.91904" ry="2.91904" fill="#B463A6"/>
<ellipse cx="5.96591" cy="49.8761" rx="2.91904" ry="2.91903" fill="#B463A6"/>
<ellipse cx="16.1183" cy="62.5675" rx="2.91904" ry="2.91904" fill="#B463A6"/>
<ellipse cx="31.0948" cy="68.9132" rx="2.91904" ry="2.91904" fill="#B463A6"/>
<circle cx="47.8487" cy="67.8976" r="2.91904" fill="#B463A6"/>
<ellipse cx="61.8097" cy="59.5206" rx="2.91904" ry="2.91904" fill="#B463A6"/>
<ellipse cx="55.97" cy="53.556" rx="2.15755" ry="2.28447" fill="#7C6D93"/>
<ellipse cx="45.306" cy="59.1399" rx="2.15755" ry="2.28447" fill="#7C6D93"/>
<ellipse cx="33.3763" cy="59.6477" rx="2.15755" ry="2.28447" fill="#7C6D93"/>
<ellipse cx="22.97" cy="55.3333" rx="2.15755" ry="2.28446" fill="#7C6D93"/>
<ellipse cx="15.3568" cy="46.1946" rx="2.15755" ry="2.28447" fill="#7C6D93"/>
<ellipse cx="12.8177" cy="34.2649" rx="2.15755" ry="2.28446" fill="#7C6D93"/>
<ellipse cx="16.8802" cy="23.6048" rx="2.15755" ry="2.28446" fill="#7C6D93"/>
<ellipse cx="25.0013" cy="14.9739" rx="2.15755" ry="2.28446" fill="#7C6D93"/>
<ellipse cx="35.9154" cy="10.9134" rx="2.15755" ry="2.28446" fill="#7C6D93"/>
<ellipse cx="48.3529" cy="13.7063" rx="2.15755" ry="2.28446" fill="#7C6D93"/>
<ellipse cx="58.0013" cy="21.0657" rx="2.15755" ry="2.28446" fill="#7C6D93"/>
<ellipse cx="51.5303" cy="5.71005" rx="3.04595" ry="2.91904" fill="#B463A6"/>
<ellipse cx="64.4717" cy="15.3565" rx="3.04595" ry="2.91904" fill="#B463A6"/>
<path d="M38.8213 42.832H36.7207V37.0312H30.7969V42.832H28.6875V29.9824H30.7969V35.2383H36.7207V29.9824H38.8213V42.832ZM46.7877 32.918C47.6549 32.918 48.399 33.0967 49.0201 33.4541C49.6412 33.8115 50.1187 34.3184 50.4527 34.9746C50.7867 35.6309 50.9537 36.416 50.9537 37.3301V38.4375H44.4586C44.482 39.3809 44.734 40.1074 45.2145 40.6172C45.7008 41.127 46.3805 41.3818 47.2535 41.3818C47.8746 41.3818 48.4312 41.3232 48.9234 41.2061C49.4215 41.083 49.9342 40.9043 50.4615 40.6699V42.3486C49.9752 42.5771 49.4801 42.7441 48.9762 42.8496C48.4723 42.9551 47.8687 43.0078 47.1656 43.0078C46.2105 43.0078 45.3697 42.8232 44.6432 42.4541C43.9225 42.0791 43.357 41.5225 42.9469 40.7842C42.5426 40.0459 42.3404 39.1289 42.3404 38.0332C42.3404 36.9434 42.525 36.0176 42.8941 35.2559C43.2633 34.4941 43.7818 33.9141 44.4498 33.5156C45.1178 33.1172 45.8971 32.918 46.7877 32.918ZM46.7877 34.4736C46.1373 34.4736 45.61 34.6846 45.2057 35.1064C44.8072 35.5283 44.5729 36.1465 44.5025 36.9609H48.9322C48.9264 36.4746 48.8443 36.0439 48.6861 35.6689C48.5338 35.2939 48.2994 35.001 47.983 34.79C47.6725 34.5791 47.274 34.4736 46.7877 34.4736ZM57.9973 32.918C59.2277 32.918 60.1564 33.1904 60.7834 33.7354C61.4162 34.2803 61.7326 35.1299 61.7326 36.2842V42.832H60.2648L59.8693 41.4521H59.799C59.5236 41.8037 59.2395 42.0938 58.9465 42.3223C58.6535 42.5508 58.3137 42.7207 57.927 42.832C57.5461 42.9492 57.0803 43.0078 56.5295 43.0078C55.9494 43.0078 55.4309 42.9023 54.9738 42.6914C54.5168 42.4746 54.1564 42.1465 53.8928 41.707C53.6291 41.2676 53.4973 40.7109 53.4973 40.0371C53.4973 39.0352 53.8693 38.2822 54.6135 37.7783C55.3635 37.2744 56.4943 36.9961 58.0061 36.9434L59.6936 36.8818V36.3721C59.6936 35.6982 59.5354 35.2178 59.2189 34.9307C58.9084 34.6436 58.4689 34.5 57.9006 34.5C57.4143 34.5 56.9426 34.5703 56.4855 34.7109C56.0285 34.8516 55.5832 35.0244 55.1496 35.2295L54.4816 33.7705C54.9562 33.5186 55.4953 33.3135 56.0988 33.1553C56.7082 32.9971 57.341 32.918 57.9973 32.918ZM59.6848 38.1826L58.4279 38.2266C57.3967 38.2617 56.673 38.4375 56.257 38.7539C55.841 39.0703 55.633 39.5039 55.633 40.0547C55.633 40.5352 55.7766 40.8867 56.0637 41.1094C56.3508 41.3262 56.7287 41.4346 57.1975 41.4346C57.9123 41.4346 58.5041 41.2324 58.9729 40.8281C59.4475 40.418 59.6848 39.8174 59.6848 39.0264V38.1826ZM67.5984 42.832H65.5242V29.1562H67.5984V42.832ZM75.0727 41.3379C75.3422 41.3379 75.6088 41.3145 75.8725 41.2676C76.1361 41.2148 76.3764 41.1533 76.5932 41.083V42.6475C76.3646 42.7471 76.0687 42.832 75.7055 42.9023C75.3422 42.9727 74.9643 43.0078 74.5717 43.0078C74.0209 43.0078 73.5258 42.917 73.0863 42.7354C72.6469 42.5479 72.2982 42.2285 72.0404 41.7773C71.7826 41.3262 71.6537 40.7021 71.6537 39.9053V34.6758H70.3266V33.7529L71.7504 33.0234L72.4271 30.9404H73.7279V33.1025H76.5141V34.6758H73.7279V39.8789C73.7279 40.3711 73.851 40.7373 74.0971 40.9775C74.3432 41.2178 74.6684 41.3379 75.0727 41.3379ZM81.5361 29.1562V32.5928C81.5361 32.9502 81.5244 33.2988 81.501 33.6387C81.4834 33.9785 81.4629 34.2422 81.4395 34.4297H81.5537C81.7588 34.0898 82.0107 33.8115 82.3096 33.5947C82.6084 33.3721 82.9424 33.2051 83.3115 33.0938C83.6865 32.9824 84.085 32.9268 84.5068 32.9268C85.251 32.9268 85.8838 33.0527 86.4053 33.3047C86.9268 33.5508 87.3252 33.9346 87.6006 34.4561C87.8818 34.9775 88.0225 35.6543 88.0225 36.4863V42.832H85.957V36.873C85.957 36.1172 85.8018 35.5518 85.4912 35.1768C85.1807 34.7959 84.7002 34.6055 84.0498 34.6055C83.4229 34.6055 82.9248 34.7373 82.5557 35.001C82.1924 35.2588 81.9316 35.6426 81.7734 36.1523C81.6152 36.6562 81.5361 37.2715 81.5361 37.998V42.832H79.4707V29.1562H81.5361Z" fill="#000099"/>
<path d="M92.025 42.832V29.9824H94.1344V41.0391H99.5924V42.832H92.025ZM104.571 33.1025V42.832H102.505V33.1025H104.571ZM103.551 29.376C103.867 29.376 104.14 29.4609 104.368 29.6309C104.603 29.8008 104.72 30.0938 104.72 30.5098C104.72 30.9199 104.603 31.2129 104.368 31.3887C104.14 31.5586 103.867 31.6436 103.551 31.6436C103.223 31.6436 102.945 31.5586 102.716 31.3887C102.493 31.2129 102.382 30.9199 102.382 30.5098C102.382 30.0938 102.493 29.8008 102.716 29.6309C102.945 29.4609 103.223 29.376 103.551 29.376ZM113.504 32.918C114.599 32.918 115.452 33.2021 116.061 33.7705C116.677 34.333 116.984 35.2383 116.984 36.4863V42.832H114.919V36.873C114.919 36.1172 114.763 35.5518 114.453 35.1768C114.142 34.7959 113.662 34.6055 113.012 34.6055C112.068 34.6055 111.412 34.8955 111.043 35.4756C110.679 36.0557 110.498 36.8965 110.498 37.998V42.832H108.432V33.1025H110.041L110.331 34.4209H110.445C110.656 34.0811 110.917 33.8027 111.227 33.5859C111.544 33.3633 111.895 33.1963 112.282 33.085C112.675 32.9736 113.082 32.918 113.504 32.918ZM122.841 29.1562V35.7656C122.841 36.0645 122.829 36.3926 122.806 36.75C122.783 37.1016 122.759 37.4326 122.736 37.7432H122.78C122.932 37.5381 123.114 37.2979 123.325 37.0225C123.541 36.7471 123.746 36.5068 123.94 36.3018L126.911 33.1025H129.284L125.39 37.2861L129.538 42.832H127.113L124.001 38.5605L122.841 39.5537V42.832H120.776V29.1562H122.841Z" fill="#1A7D0D"/>
</svg>
