<svg width="59" height="63" viewBox="0 0 59 63" fill="none" xmlns="http://www.w3.org/2000/svg">
<path d="M38.1348 38H35.8008V31.5547H29.2188V38H26.875V23.7227H29.2188V29.5625H35.8008V23.7227H38.1348V38Z" fill="#000099"/>
<path d="M41.9141 38V23.7227H44.2578V36.0078H50.3223V38H41.9141Z" fill="#1A7D0D"/>
<ellipse cx="30.9412" cy="2.55074" rx="2.55074" ry="2.55074" fill="#B463A6"/>
<ellipse cx="17.1895" cy="6.76543" rx="2.55074" ry="2.55074" fill="#B463A6"/>
<ellipse cx="6.98617" cy="16.5246" rx="2.55074" ry="2.55074" fill="#B463A6"/>
<ellipse cx="2.55074" cy="29.833" rx="2.55074" ry="2.55074" fill="#B463A6"/>
<ellipse cx="5.21242" cy="43.5842" rx="2.55074" ry="2.55074" fill="#B463A6"/>
<ellipse cx="14.0842" cy="54.6749" rx="2.55074" ry="2.55074" fill="#B463A6"/>
<ellipse cx="27.1712" cy="60.2193" rx="2.55074" ry="2.55074" fill="#B463A6"/>
<circle cx="41.8103" cy="59.3324" r="2.55074" fill="#B463A6"/>
<ellipse cx="54.0097" cy="52.0131" rx="2.55074" ry="2.55074" fill="#B463A6"/>
<ellipse cx="48.9077" cy="46.8004" rx="1.88533" ry="1.99623" fill="#7C6D93"/>
<ellipse cx="39.5916" cy="51.68" rx="1.88533" ry="1.99623" fill="#7C6D93"/>
<ellipse cx="29.1674" cy="52.124" rx="1.88533" ry="1.99623" fill="#7C6D93"/>
<ellipse cx="20.0732" cy="48.3533" rx="1.88533" ry="1.99623" fill="#7C6D93"/>
<ellipse cx="13.4188" cy="40.3685" rx="1.88533" ry="1.99623" fill="#7C6D93"/>
<ellipse cx="11.2014" cy="29.9433" rx="1.88533" ry="1.99623" fill="#7C6D93"/>
<ellipse cx="14.7504" cy="20.6276" rx="1.88533" ry="1.99623" fill="#7C6D93"/>
<ellipse cx="21.8474" cy="13.0863" rx="1.88533" ry="1.99623" fill="#7C6D93"/>
<ellipse cx="31.3853" cy="9.53761" rx="1.88533" ry="1.99623" fill="#7C6D93"/>
<ellipse cx="42.2533" cy="11.9774" rx="1.88533" ry="1.99623" fill="#7C6D93"/>
<ellipse cx="50.6817" cy="18.4093" rx="1.88533" ry="1.99623" fill="#7C6D93"/>
<ellipse cx="45.0265" cy="4.99053" rx="2.66164" ry="2.55074" fill="#B463A6"/>
<ellipse cx="56.3383" cy="13.4194" rx="2.66164" ry="2.55074" fill="#B463A6"/>
</svg>
