<svg width="20" height="25" viewBox="0 0 20 25" fill="none" xmlns="http://www.w3.org/2000/svg">
<path d="M9.99999 12.6528C8.66319 12.6528 7.56944 11.559 7.56944 10.2222C7.56944 8.88542 8.66319 7.79167 9.99999 7.79167C11.3368 7.79167 12.4305 8.88542 12.4305 10.2222C12.4305 11.559 11.3368 12.6528 9.99999 12.6528ZM17.2917 10.4653C17.2917 6.05382 14.0712 2.93056 9.99999 2.93056C5.92881 2.93056 2.70833 6.05382 2.70833 10.4653C2.70833 13.309 5.07812 17.0764 9.99999 21.5729C14.9219 17.0764 17.2917 13.309 17.2917 10.4653ZM9.99999 0.5C15.1042 0.5 19.7222 4.41319 19.7222 10.4653C19.7222 14.5 16.4774 19.276 9.99999 24.8056C3.52256 19.276 0.277771 14.5 0.277771 10.4653C0.277771 4.41319 4.89583 0.5 9.99999 0.5Z" fill="#898989"/>
</svg>
