<svg width="11" height="20" viewBox="0 0 11 20" fill="none" xmlns="http://www.w3.org/2000/svg">
<path d="M8.91663 0.833008H2.24996C1.09996 0.833008 0.166626 1.76634 0.166626 2.91634V17.083C0.166626 18.233 1.09996 19.1663 2.24996 19.1663H8.91663C10.0666 19.1663 11 18.233 11 17.083V2.91634C11 1.76634 10.0666 0.833008 8.91663 0.833008ZM5.58329 18.333C4.89163 18.333 4.33329 17.7747 4.33329 17.083C4.33329 16.3913 4.89163 15.833 5.58329 15.833C6.27496 15.833 6.83329 16.3913 6.83329 17.083C6.83329 17.7747 6.27496 18.333 5.58329 18.333ZM9.33329 14.9997H1.83329V3.33301H9.33329V14.9997Z" fill="#898989"/>
</svg>
