<svg width="23" height="26" viewBox="0 0 23 26" fill="none" xmlns="http://www.w3.org/2000/svg">
<path d="M20 3H18.75V0.5H16.25V3H6.25V0.5H3.75V3H2.5C1.1125 3 0.0125 4.125 0.0125 5.5L0 23C0 24.375 1.1125 25.5 2.5 25.5H20C21.375 25.5 22.5 24.375 22.5 23V5.5C22.5 4.125 21.375 3 20 3ZM20 23H2.5V10.5H20V23ZM20 8H2.5V5.5H20V8ZM7.5 15.5H5V13H7.5V15.5ZM12.5 15.5H10V13H12.5V15.5ZM17.5 15.5H15V13H17.5V15.5ZM7.5 20.5H5V18H7.5V20.5ZM12.5 20.5H10V18H12.5V20.5ZM17.5 20.5H15V18H17.5V20.5Z" fill="#898989" fill-opacity="0.8"/>
</svg>
