<svg width="18" height="16" viewBox="0 0 18 16" fill="none" xmlns="http://www.w3.org/2000/svg">
<path fill-rule="evenodd" clip-rule="evenodd" d="M15.6667 0.5H2.33335C1.41669 0.5 0.666687 1.25 0.666687 2.16667V13.8333C0.666687 14.75 1.41669 15.5 2.33335 15.5H15.6667C16.5834 15.5 17.3334 14.75 17.3334 13.8333V2.16667C17.3334 1.25 16.5834 0.5 15.6667 0.5ZM15.6667 13.8333H2.33335V2.16667H15.6667V13.8333Z" fill="#898989"/>
<path fill-rule="evenodd" clip-rule="evenodd" d="M15.175 6.68333L13.9917 5.5L11.35 8.14167L10.175 6.95833L9 8.13333L11.35 10.5L15.175 6.68333Z" fill="#898989"/>
<path d="M7.33335 3.8335H3.16669V5.50016H7.33335V3.8335Z" fill="#898989"/>
<path d="M7.33335 7.1665H3.16669V8.83317H7.33335V7.1665Z" fill="#898989"/>
<path d="M7.33335 10.5H3.16669V12.1667H7.33335V10.5Z" fill="#898989"/>
</svg>
