<svg width="18" height="20" viewBox="0 0 18 20" fill="none" xmlns="http://www.w3.org/2000/svg">
<path d="M17.1125 14.6709L17.1122 14.6706C17.0685 14.6249 17.0206 14.5761 16.9693 14.5238C16.5945 14.1418 16.0382 13.5747 15.5799 12.6726C15.0561 11.6414 14.6753 10.2163 14.6753 8.125C14.6753 5.48034 12.772 3.3315 10.1364 2.79922L9.53491 2.67773V2.06406V1.25C9.53491 0.993302 9.31493 0.75 9 0.75C8.68507 0.75 8.46509 0.993302 8.46509 1.25V2.06406V2.67773L7.86357 2.79922C5.22804 3.3315 3.32466 5.48034 3.32466 8.125C3.32466 10.2163 2.94388 11.6414 2.42008 12.6726C1.96184 13.5747 1.40549 14.1418 1.03065 14.5238C0.979432 14.576 0.931598 14.6248 0.887868 14.6705L17.1125 14.6709ZM17.1125 14.6709C17.216 14.7789 17.2507 14.8914 17.25 14.9949L17.25 14.9953M17.1125 14.6709L17.25 14.9953M17.25 14.9953C17.2484 15.2482 17.0418 15.5 16.7102 15.5H1.28976C0.958602 15.5 0.751796 15.2486 0.75001 14.9949L17.25 14.9953ZM10.6442 18.25C10.3548 18.8351 9.73661 19.25 9 19.25C8.26339 19.25 7.64522 18.8351 7.35584 18.25H10.6442ZM0.75001 14.9948C0.749323 14.8917 0.783741 14.7793 0.887756 14.6706L0.75001 14.9948Z" stroke="#898989" stroke-width="1.5"/>
</svg>
