<svg width="14" height="15" viewBox="0 0 14 15" fill="none" xmlns="http://www.w3.org/2000/svg">
<path d="M13.38 2.415C13.3425 2.325 13.2975 2.2425 13.245 2.16C13.14 2.0025 12.9975 1.86 12.84 1.755C12.7575 1.7025 12.675 1.6575 12.585 1.62C12.405 1.545 12.21 1.5 12 1.5H11.25V0H9.75V1.5H3.75V0H2.25V1.5H1.5C1.185 1.5 0.9 1.5975 0.66 1.755C0.5025 1.86 0.36 2.0025 0.255 2.16C0.2025 2.2425 0.1575 2.325 0.12 2.415C0.0450001 2.595 0 2.79 0 3V13.5C0 14.325 0.6675 15 1.5 15H12C12.21 15 12.405 14.955 12.585 14.88C12.675 14.8425 12.7575 14.7975 12.84 14.745C12.9975 14.64 13.14 14.4975 13.245 14.34C13.4025 14.1 13.5 13.8075 13.5 13.5V3C13.5 2.79 13.455 2.595 13.38 2.415ZM1.5 13.5V3H12V13.5H1.5ZM6.75 8.91C5.2275 8.91 2.25 9.72 2.25 11.595V12.75H11.25V11.6025C11.25 9.72 8.2725 8.91 6.75 8.91ZM3.9825 11.25C4.5 10.83 5.7675 10.41 6.75 10.41C7.7325 10.41 9.0075 10.83 9.5175 11.25H3.9825ZM6.75 8.25C7.9875 8.25 9 7.2375 9 6C9 4.7625 7.9875 3.75 6.75 3.75C5.5125 3.75 4.5 4.7625 4.5 6C4.5 7.2375 5.5125 8.25 6.75 8.25ZM6.75 5.25C7.1625 5.25 7.5 5.5875 7.5 6C7.5 6.4125 7.1625 6.75 6.75 6.75C6.3375 6.75 6 6.4125 6 6C6 5.5875 6.3375 5.25 6.75 5.25Z" fill="#000099"/>
</svg>
