<svg width="18" height="18" viewBox="0 0 18 18" fill="none" xmlns="http://www.w3.org/2000/svg">
<rect width="18" height="18" rx="3" fill="#000099"/>
<path d="M8.3728 9.03125H8.97046C9.52905 9.03125 9.94702 8.92188 10.2244 8.70312C10.5017 8.48047 10.6404 8.1582 10.6404 7.73633C10.6404 7.31055 10.5232 6.99609 10.2888 6.79297C10.0583 6.58984 9.69507 6.48828 9.19897 6.48828H8.3728V9.03125ZM12.4744 7.67188C12.4744 8.59375 12.1853 9.29883 11.6072 9.78711C11.033 10.2754 10.2146 10.5195 9.1521 10.5195H8.3728V13.5664H6.5564V5H9.29272C10.3318 5 11.1208 5.22461 11.6599 5.67383C12.2029 6.11914 12.4744 6.78516 12.4744 7.67188Z" fill="white"/>
</svg>
