<svg width="24" height="17" viewBox="0 0 24 17" fill="none" xmlns="http://www.w3.org/2000/svg">
<path d="M8.4 8.4C10.716 8.4 12.6 6.516 12.6 4.2C12.6 1.884 10.716 0 8.4 0C6.084 0 4.2 1.884 4.2 4.2C4.2 6.516 6.084 8.4 8.4 8.4ZM8.4 2.4C9.396 2.4 10.2 3.204 10.2 4.2C10.2 5.196 9.396 6 8.4 6C7.404 6 6.6 5.196 6.6 4.2C6.6 3.204 7.404 2.4 8.4 2.4ZM8.46 14.4H3.324C4.512 13.8 6.564 13.2 8.4 13.2C8.532 13.2 8.676 13.212 8.808 13.212C9.216 12.336 9.924 11.616 10.776 11.04C9.9 10.884 9.072 10.8 8.4 10.8C5.592 10.8 0 12.204 0 15V16.8H8.4V15C8.4 14.796 8.424 14.592 8.46 14.4ZM17.4 11.4C15.192 11.4 10.8 12.612 10.8 15V16.8H24V15C24 12.612 19.608 11.4 17.4 11.4ZM18.852 9.216C19.764 8.7 20.4 7.728 20.4 6.6C20.4 4.944 19.056 3.6 17.4 3.6C15.744 3.6 14.4 4.944 14.4 6.6C14.4 7.728 15.036 8.7 15.948 9.216C16.38 9.456 16.872 9.6 17.4 9.6C17.928 9.6 18.42 9.456 18.852 9.216Z" fill="#898989"/>
</svg>
