<svg width="12" height="13" viewBox="0 0 12 13" fill="none" xmlns="http://www.w3.org/2000/svg">
<path d="M8 0.5H1.33333C0.6 0.5 0.00666666 1.1 0.00666666 1.83333L0 11.1667C0 11.9 0.593333 12.5 1.32667 12.5H10.6667C11.4 12.5 12 11.9 12 11.1667V4.5L8 0.5ZM1.33333 11.1667V1.83333H7.33333V5.16667H10.6667V11.1667H1.33333ZM4 3.83333C4 4.2 3.7 4.5 3.33333 4.5C2.96667 4.5 2.66667 4.2 2.66667 3.83333C2.66667 3.46667 2.96667 3.16667 3.33333 3.16667C3.7 3.16667 4 3.46667 4 3.83333ZM4 6.5C4 6.86667 3.7 7.16667 3.33333 7.16667C2.96667 7.16667 2.66667 6.86667 2.66667 6.5C2.66667 6.13333 2.96667 5.83333 3.33333 5.83333C3.7 5.83333 4 6.13333 4 6.5ZM4 9.16667C4 9.53333 3.7 9.83333 3.33333 9.83333C2.96667 9.83333 2.66667 9.53333 2.66667 9.16667C2.66667 8.8 2.96667 8.5 3.33333 8.5C3.7 8.5 4 8.8 4 9.16667Z" fill="#898989" fill-opacity="0.7"/>
</svg>
