<svg width="13" height="16" viewBox="0 0 13 16" fill="none" xmlns="http://www.w3.org/2000/svg">
<path d="M1.625 9.22656C1.625 7.88594 2.16938 6.66719 3.055 5.78156L1.90125 4.62781C0.73125 5.80594 0 7.43094 0 9.22656C0 12.5416 2.47812 15.2716 5.6875 15.6697V14.0284C3.38812 13.6384 1.625 11.6397 1.625 9.22656ZM13 9.22656C13 5.63531 10.0913 2.72656 6.5 2.72656C6.45125 2.72656 6.4025 2.73469 6.35375 2.73469L7.23938 1.84906L6.09375 0.695312L3.25 3.53906L6.09375 6.38281L7.23938 5.23719L6.36188 4.35969C6.41062 4.35969 6.45937 4.35156 6.5 4.35156C9.18937 4.35156 11.375 6.53719 11.375 9.22656C11.375 11.6397 9.61187 13.6384 7.3125 14.0284V15.6697C10.5219 15.2716 13 12.5416 13 9.22656Z" fill="#000099"/>
</svg>
