<svg width="13" height="18" viewBox="0 0 13 18" fill="none" xmlns="http://www.w3.org/2000/svg">
<path d="M11.375 5.6875H10.5625V4.0625C10.5625 1.82 8.7425 0 6.5 0C4.2575 0 2.4375 1.82 2.4375 4.0625H4.0625C4.0625 2.71375 5.15125 1.625 6.5 1.625C7.84875 1.625 8.9375 2.71375 8.9375 4.0625V5.6875H1.625C0.73125 5.6875 0 6.41875 0 7.3125V15.4375C0 16.3312 0.73125 17.0625 1.625 17.0625H11.375C12.2688 17.0625 13 16.3312 13 15.4375V7.3125C13 6.41875 12.2688 5.6875 11.375 5.6875ZM11.375 15.4375H1.625V7.3125H11.375V15.4375ZM6.5 13C7.39375 13 8.125 12.2688 8.125 11.375C8.125 10.4812 7.39375 9.75 6.5 9.75C5.60625 9.75 4.875 10.4812 4.875 11.375C4.875 12.2688 5.60625 13 6.5 13Z" fill="#000099"/>
</svg>
