<svg width="14" height="19" viewBox="0 0 14 19" fill="none" xmlns="http://www.w3.org/2000/svg">
<path d="M12 6.66634H11.1667V4.99967C11.1667 2.69967 9.30001 0.833008 7.00001 0.833008C4.70001 0.833008 2.83334 2.69967 2.83334 4.99967V6.66634H2.00001C1.08334 6.66634 0.333344 7.41634 0.333344 8.33301V16.6663C0.333344 17.583 1.08334 18.333 2.00001 18.333H12C12.9167 18.333 13.6667 17.583 13.6667 16.6663V8.33301C13.6667 7.41634 12.9167 6.66634 12 6.66634ZM4.50001 4.99967C4.50001 3.61634 5.61668 2.49967 7.00001 2.49967C8.38334 2.49967 9.50001 3.61634 9.50001 4.99967V6.66634H4.50001V4.99967ZM12 16.6663H2.00001V8.33301H12V16.6663ZM7.00001 14.1663C7.91668 14.1663 8.66668 13.4163 8.66668 12.4997C8.66668 11.583 7.91668 10.833 7.00001 10.833C6.08334 10.833 5.33334 11.583 5.33334 12.4997C5.33334 13.4163 6.08334 14.1663 7.00001 14.1663Z" fill="#000099"/>
</svg>
