<svg width="16" height="15" viewBox="0 0 16 15" fill="none" xmlns="http://www.w3.org/2000/svg">
<path d="M15.2112 12.9976L11.6783 9.49117C12.4817 8.3074 12.8781 6.82836 12.6659 5.25236C12.304 2.57169 10.0905 0.390183 7.38699 0.050463C3.36747 -0.454356 -0.0124848 2.90036 0.496161 6.88988C0.838524 9.57436 3.03673 11.7731 5.73786 12.1305C7.32572 12.3411 8.81618 11.9479 10.0085 11.1504L13.5414 14.6568C14.0024 15.1144 14.75 15.1144 15.211 14.6568C15.6716 14.1987 15.6716 13.4546 15.2112 12.9976ZM2.77984 6.09309C2.77984 4.02554 4.47454 2.34349 6.55764 2.34349C8.64074 2.34349 10.3354 4.02554 10.3354 6.09309C10.3354 8.16064 8.64074 9.84269 6.55764 9.84269C4.47454 9.84269 2.77984 8.16123 2.77984 6.09309Z" fill="#000099"/>
</svg>
