<svg width="16" height="15" viewBox="0 0 16 15" fill="none" xmlns="http://www.w3.org/2000/svg">
<path d="M14.7649 12.9976L11.2321 9.49117C12.0355 8.3074 12.4319 6.82836 12.2196 5.25236C11.8578 2.57169 9.64425 0.390183 6.94076 0.050463C2.92124 -0.454356 -0.458713 2.90036 0.0499326 6.88988C0.392296 9.57436 2.5905 11.7731 5.29163 12.1305C6.87949 12.3411 8.36995 11.9479 9.56232 11.1504L13.0951 14.6568C13.5562 15.1144 14.3038 15.1144 14.7648 14.6568C15.2254 14.1987 15.2254 13.4546 14.7649 12.9976ZM2.33361 6.09309C2.33361 4.02554 4.02831 2.34349 6.11141 2.34349C8.19452 2.34349 9.88921 4.02554 9.88921 6.09309C9.88921 8.16064 8.19452 9.84269 6.11141 9.84269C4.02831 9.84269 2.33361 8.16123 2.33361 6.09309Z" fill="#000099"/>
</svg>
