<svg width="14" height="14" viewBox="0 0 14 14" fill="none" xmlns="http://www.w3.org/2000/svg">
<path d="M5.125 0.75V2H8.875V0.75H10.125V2H12.625C12.7908 2 12.9497 2.06585 13.0669 2.18306C13.1842 2.30027 13.25 2.45924 13.25 2.625V12.625C13.25 12.7908 13.1842 12.9497 13.0669 13.0669C12.9497 13.1842 12.7908 13.25 12.625 13.25H1.375C1.20924 13.25 1.05027 13.1842 0.933058 13.0669C0.815848 12.9497 0.75 12.7908 0.75 12.625V2.625C0.75 2.45924 0.815848 2.30027 0.933058 2.18306C1.05027 2.06585 1.20924 2 1.375 2H3.875V0.75H5.125ZM12 6.375H2V12H12V6.375ZM8.8975 7.085L9.78125 7.96875L6.6875 11.0625L4.4775 8.8525L5.3625 7.96875L6.68813 9.295L8.8975 7.085ZM3.875 3.25H2V5.125H12V3.25H10.125V3.875H8.875V3.25H5.125V3.875H3.875V3.25Z" fill="#898989" fill-opacity="0.7"/>
</svg>
