<svg width="24" height="23" viewBox="0 0 24 23" fill="none" xmlns="http://www.w3.org/2000/svg">
<path d="M10.9102 19H9.71875V13.2891H12.9922V14.2812H10.9102V15.7539H12.8477V16.7422H10.9102V19ZM17.3984 19H14.1094V13.2891H17.3984V14.2812H15.3203V15.5352H17.2539V16.5273H15.3203V18H17.3984V19ZM21.8516 13.2891H23.0742L21.1328 19H19.8125L17.875 13.2891H19.0977L20.1719 16.6875C20.2318 16.888 20.293 17.1224 20.3555 17.3906C20.4206 17.6562 20.4609 17.8411 20.4766 17.9453C20.5052 17.7057 20.6029 17.2865 20.7695 16.6875L21.8516 13.2891Z" fill="white"/>
<path fill-rule="evenodd" clip-rule="evenodd" d="M7.2 3.59375H9.36664C9.76002 3.59375 10.079 3.92034 10.08 4.3125H17.2751C17.6754 4.3125 18 4.64001 18 5.02794V10.7846C18 11.1797 17.676 11.5 17.2751 11.5H10.08C10.079 11.8971 9.75471 12.2187 9.36664 12.2187H7.2V22.2864C7.2 22.6805 6.87193 23 6.48332 23H2.16024C0.967175 23 0 22.041 0 20.8466V2.15345C0 0.964131 0.971028 0 2.16024 0H6.48332C6.87913 0 7.2 0.325135 7.2 0.713565V3.59375ZM3.6 1.4375H2.15336C1.76471 1.4375 1.44 1.75818 1.44 2.15376V20.8462C1.44 21.2464 1.75939 21.5625 2.15336 21.5625H3.6V1.4375ZM4.32 1.4375V21.5625H5.76V1.4375H4.32ZM6.48 5.03125V10.7812H8.64V5.03125H6.48ZM9.36 5.75V10.0625H16.56V5.75H9.36Z" fill="white"/>
<rect x="1" y="1" width="6" height="21" fill="white"/>
</svg>
