<svg width="30" height="30" viewBox="0 0 30 30" fill="none" xmlns="http://www.w3.org/2000/svg">
<circle cx="15" cy="15" r="14.5" fill="#626262" stroke="#626262"/>
<path fill-rule="evenodd" clip-rule="evenodd" d="M10.5652 8.74599H12.2399C12.544 8.74599 12.7906 8.99554 12.7913 9.29519H18.3527C18.6622 9.29519 18.913 9.54544 18.913 9.84187V14.2405C18.913 14.5424 18.6626 14.7872 18.3527 14.7872H12.7913C12.7906 15.0906 12.5399 15.3364 12.2399 15.3364H10.5652V23.0291C10.5652 23.3303 10.3116 23.5744 10.0113 23.5744H6.66975C5.74757 23.5744 5 22.8416 5 21.9289V7.64546C5 6.7367 5.75055 6 6.66975 6H10.0113C10.3172 6 10.5652 6.24844 10.5652 6.54524V8.74599ZM7.78261 7.0984H6.66444C6.36402 7.0984 6.11304 7.34343 6.11304 7.64569V21.9287C6.11304 22.2344 6.35991 22.476 6.66444 22.476H7.78261V7.0984ZM8.33913 7.0984V22.476H9.45217V7.0984H8.33913ZM10.0087 9.84439V14.238H11.6783V9.84439H10.0087ZM12.2348 10.3936V13.6888H17.8V10.3936H12.2348Z" fill="white"/>
<rect x="5.86963" y="6.83545" width="4.34783" height="15.6522" fill="white"/>
<path d="M13.9102 22H12.7188V16.2891H15.9922V17.2812H13.9102V18.7539H15.8477V19.7422H13.9102V22ZM20.3984 22H17.1094V16.2891H20.3984V17.2812H18.3203V18.5352H20.2539V19.5273H18.3203V21H20.3984V22ZM24.8516 16.2891H26.0742L24.1328 22H22.8125L20.875 16.2891H22.0977L23.1719 19.6875C23.2318 19.888 23.293 20.1224 23.3555 20.3906C23.4206 20.6562 23.4609 20.8411 23.4766 20.9453C23.5052 20.7057 23.6029 20.2865 23.7695 19.6875L24.8516 16.2891Z" fill="white"/>
</svg>
