<svg width="16" height="21" viewBox="0 0 16 21" fill="none" xmlns="http://www.w3.org/2000/svg">
<path fill-rule="evenodd" clip-rule="evenodd" d="M6.4 3.19696H8.3259C8.67557 3.19696 8.95914 3.48394 8.96 3.82854H15.3556C15.7115 3.82854 16 4.11632 16 4.45721V9.51565C16 9.86286 15.712 10.1443 15.3556 10.1443H8.96C8.95914 10.4933 8.67086 10.7759 8.3259 10.7759H6.4V19.6226C6.4 19.9689 6.10838 20.2496 5.76295 20.2496H1.92021C0.859711 20.2496 0 19.4069 0 18.3573V1.93134C0 0.886262 0.863136 0.0390625 1.92021 0.0390625H5.76295C6.11478 0.0390625 6.4 0.324765 6.4 0.666085V3.19696ZM3.2 1.30222H1.9141C1.56863 1.30222 1.28 1.58401 1.28 1.93161V18.357C1.28 18.7087 1.5639 18.9864 1.9141 18.9864H3.2V1.30222ZM3.84 1.30222V18.9864H5.12V1.30222H3.84ZM5.76 4.46011V9.51275H7.68V4.46011H5.76ZM8.32 5.09169V8.88117H14.72V5.09169H8.32Z" fill="white"/>
</svg>
