<svg width="31" height="30" viewBox="0 0 31 30" fill="none" xmlns="http://www.w3.org/2000/svg">
<circle cx="15.2754" cy="15" r="14.5" fill="#626262" stroke="#626262"/>
<path d="M8.3877 16.0176C8.3877 16.6621 8.15495 17.1699 7.68945 17.541C7.22721 17.9121 6.58268 18.0977 5.75586 18.0977C4.99414 18.0977 4.32031 17.9544 3.73438 17.668V16.2617C4.21615 16.4766 4.62305 16.6279 4.95508 16.7158C5.29036 16.8037 5.59635 16.8477 5.87305 16.8477C6.20508 16.8477 6.45898 16.7842 6.63477 16.6572C6.8138 16.5303 6.90332 16.3415 6.90332 16.0908C6.90332 15.9508 6.86426 15.8271 6.78613 15.7197C6.70801 15.609 6.59245 15.5033 6.43945 15.4023C6.28971 15.3014 5.9821 15.1403 5.5166 14.9189C5.0804 14.7139 4.75326 14.5169 4.53516 14.3281C4.31706 14.1393 4.1429 13.9196 4.0127 13.6689C3.88249 13.4183 3.81738 13.1253 3.81738 12.79C3.81738 12.1585 4.0306 11.6621 4.45703 11.3008C4.88672 10.9395 5.47917 10.7588 6.23438 10.7588C6.60547 10.7588 6.95866 10.8027 7.29395 10.8906C7.63249 10.9785 7.98568 11.1022 8.35352 11.2617L7.86523 12.4385C7.48438 12.2822 7.16862 12.1732 6.91797 12.1113C6.67057 12.0495 6.42643 12.0186 6.18555 12.0186C5.89909 12.0186 5.67936 12.0853 5.52637 12.2188C5.37337 12.3522 5.29688 12.5264 5.29688 12.7412C5.29688 12.8747 5.3278 12.9919 5.38965 13.0928C5.4515 13.1904 5.54915 13.2865 5.68262 13.3809C5.81934 13.472 6.13997 13.638 6.64453 13.8789C7.31185 14.1979 7.76921 14.5186 8.0166 14.8408C8.264 15.1598 8.3877 15.5521 8.3877 16.0176ZM12.5625 18.0977C11.9212 18.0977 11.4183 17.8649 11.0537 17.3994H10.9756C11.0277 17.8551 11.0537 18.1188 11.0537 18.1904V20.4023H9.56445V12.541H10.7754L10.9854 13.249H11.0537C11.402 12.7087 11.918 12.4385 12.6016 12.4385C13.2461 12.4385 13.7507 12.6875 14.1152 13.1855C14.4798 13.6836 14.6621 14.3753 14.6621 15.2607C14.6621 15.8434 14.5758 16.3496 14.4033 16.7793C14.234 17.209 13.9915 17.5361 13.6758 17.7607C13.36 17.9854 12.9889 18.0977 12.5625 18.0977ZM12.123 13.6299C11.7552 13.6299 11.4867 13.7438 11.3174 13.9717C11.1481 14.1963 11.0602 14.569 11.0537 15.0898V15.251C11.0537 15.8369 11.14 16.2568 11.3125 16.5107C11.4883 16.7646 11.765 16.8916 12.1426 16.8916C12.8099 16.8916 13.1436 16.3415 13.1436 15.2412C13.1436 14.7041 13.0605 14.3021 12.8945 14.0352C12.7318 13.765 12.4746 13.6299 12.123 13.6299ZM22.4893 14.4209C22.4893 15.6025 22.1963 16.5107 21.6104 17.1455C21.0244 17.7803 20.1846 18.0977 19.0908 18.0977C17.9971 18.0977 17.1572 17.7803 16.5713 17.1455C15.9854 16.5107 15.6924 15.5993 15.6924 14.4111C15.6924 13.223 15.9854 12.3164 16.5713 11.6914C17.1605 11.0632 18.0036 10.749 19.1006 10.749C20.1976 10.749 21.0358 11.0648 21.6152 11.6963C22.1979 12.3278 22.4893 13.236 22.4893 14.4209ZM17.2793 14.4209C17.2793 15.2184 17.4307 15.819 17.7334 16.2227C18.0361 16.6263 18.4886 16.8281 19.0908 16.8281C20.2985 16.8281 20.9023 16.0257 20.9023 14.4209C20.9023 12.8128 20.3018 12.0088 19.1006 12.0088C18.4984 12.0088 18.0443 12.2122 17.7383 12.6191C17.4323 13.0228 17.2793 13.6234 17.2793 14.4209Z" fill="white"/>
<path d="M26.5879 21H22.5957V20.1602L24.0293 18.7109C24.4538 18.276 24.7311 17.9753 24.8613 17.8086C24.9915 17.6393 25.0853 17.4831 25.1426 17.3398C25.1999 17.1966 25.2285 17.0482 25.2285 16.8945C25.2285 16.6654 25.1647 16.4948 25.0371 16.3828C24.9121 16.2708 24.7441 16.2148 24.5332 16.2148C24.3118 16.2148 24.097 16.2656 23.8887 16.3672C23.6803 16.4688 23.4629 16.6133 23.2363 16.8008L22.5801 16.0234C22.8613 15.7839 23.0944 15.6146 23.2793 15.5156C23.4642 15.4167 23.666 15.3411 23.8848 15.2891C24.1035 15.2344 24.3483 15.207 24.6191 15.207C24.9759 15.207 25.291 15.2721 25.5645 15.4023C25.8379 15.5326 26.0501 15.7148 26.2012 15.9492C26.3522 16.1836 26.4277 16.4518 26.4277 16.7539C26.4277 17.0169 26.3809 17.2643 26.2871 17.4961C26.196 17.7253 26.0527 17.9609 25.8574 18.2031C25.6647 18.4453 25.3236 18.7904 24.834 19.2383L24.0996 19.9297V19.9844H26.5879V21Z" fill="white"/>
</svg>
