<svg width="33" height="17" viewBox="0 0 33 17" fill="none" xmlns="http://www.w3.org/2000/svg">
<path d="M6.646 8.42285C6.646 9.26074 6.34342 9.9209 5.73828 10.4033C5.13737 10.8857 4.29948 11.127 3.22461 11.127C2.23438 11.127 1.3584 10.9408 0.59668 10.5684V8.74023C1.22298 9.01953 1.75195 9.21631 2.18359 9.33057C2.61947 9.44482 3.01725 9.50195 3.37695 9.50195C3.80859 9.50195 4.13867 9.41943 4.36719 9.25439C4.59993 9.08936 4.71631 8.84391 4.71631 8.51807C4.71631 8.3361 4.66553 8.17529 4.56396 8.03564C4.4624 7.89176 4.31217 7.75423 4.11328 7.62305C3.91862 7.49186 3.51872 7.28239 2.91357 6.99463C2.34652 6.72803 1.92122 6.47201 1.6377 6.22656C1.35417 5.98112 1.12777 5.69548 0.958496 5.36963C0.789225 5.04378 0.70459 4.66292 0.70459 4.22705C0.70459 3.40609 0.981771 2.76074 1.53613 2.29102C2.09473 1.82129 2.86491 1.58643 3.84668 1.58643C4.3291 1.58643 4.78825 1.64355 5.22412 1.75781C5.66423 1.87207 6.12337 2.03288 6.60156 2.24023L5.9668 3.77002C5.47168 3.56689 5.0612 3.42513 4.73535 3.34473C4.41374 3.26432 4.09635 3.22412 3.7832 3.22412C3.41081 3.22412 3.12516 3.31087 2.92627 3.48438C2.72738 3.65788 2.62793 3.88428 2.62793 4.16357C2.62793 4.33708 2.66813 4.48942 2.74854 4.62061C2.82894 4.74756 2.95589 4.8724 3.12939 4.99512C3.30713 5.11361 3.72396 5.32943 4.37988 5.64258C5.2474 6.05729 5.84196 6.47412 6.16357 6.89307C6.48519 7.30778 6.646 7.81771 6.646 8.42285ZM12.0732 11.127C11.2396 11.127 10.5858 10.8244 10.1118 10.2192H10.0103C10.078 10.8117 10.1118 11.1545 10.1118 11.2476V14.123H8.17578V3.90332H9.75L10.0229 4.82373H10.1118C10.5646 4.12126 11.2354 3.77002 12.124 3.77002C12.9619 3.77002 13.6178 4.09375 14.0918 4.74121C14.5658 5.38867 14.8027 6.28792 14.8027 7.43896C14.8027 8.19645 14.6906 8.85449 14.4663 9.41309C14.2463 9.97168 13.931 10.397 13.5205 10.689C13.11 10.981 12.6276 11.127 12.0732 11.127ZM11.502 5.31885C11.0238 5.31885 10.6746 5.46696 10.4546 5.76318C10.2345 6.05518 10.1203 6.53971 10.1118 7.2168V7.42627C10.1118 8.18799 10.224 8.73389 10.4482 9.06396C10.6768 9.39404 11.0365 9.55908 11.5273 9.55908C12.3949 9.55908 12.8286 8.84391 12.8286 7.41357C12.8286 6.71533 12.7207 6.19271 12.5049 5.8457C12.2933 5.49447 11.959 5.31885 11.502 5.31885ZM24.978 6.34717C24.978 7.8833 24.5972 9.06396 23.8354 9.88916C23.0737 10.7144 21.9819 11.127 20.5601 11.127C19.1382 11.127 18.0464 10.7144 17.2847 9.88916C16.5229 9.06396 16.1421 7.87907 16.1421 6.33447C16.1421 4.78988 16.5229 3.61133 17.2847 2.79883C18.0506 1.9821 19.1466 1.57373 20.5728 1.57373C21.9989 1.57373 23.0885 1.98421 23.8418 2.80518C24.5993 3.62614 24.978 4.8068 24.978 6.34717ZM18.2051 6.34717C18.2051 7.38395 18.4019 8.16471 18.7954 8.68945C19.189 9.21419 19.7772 9.47656 20.5601 9.47656C22.13 9.47656 22.915 8.43343 22.915 6.34717C22.915 4.25667 22.1343 3.21143 20.5728 3.21143C19.7899 3.21143 19.1995 3.47591 18.8018 4.00488C18.404 4.52962 18.2051 5.31038 18.2051 6.34717Z" fill="white"/>
<path d="M30.3125 14H26.3203V13.1602L27.7539 11.7109C28.1784 11.276 28.4557 10.9753 28.5859 10.8086C28.7161 10.6393 28.8099 10.4831 28.8672 10.3398C28.9245 10.1966 28.9531 10.0482 28.9531 9.89453C28.9531 9.66536 28.8893 9.49479 28.7617 9.38281C28.6367 9.27083 28.4688 9.21484 28.2578 9.21484C28.0365 9.21484 27.8216 9.26562 27.6133 9.36719C27.4049 9.46875 27.1875 9.61328 26.9609 9.80078L26.3047 9.02344C26.5859 8.78385 26.819 8.61458 27.0039 8.51562C27.1888 8.41667 27.3906 8.34115 27.6094 8.28906C27.8281 8.23438 28.0729 8.20703 28.3438 8.20703C28.7005 8.20703 29.0156 8.27214 29.2891 8.40234C29.5625 8.53255 29.7747 8.71484 29.9258 8.94922C30.0768 9.18359 30.1523 9.45182 30.1523 9.75391C30.1523 10.0169 30.1055 10.2643 30.0117 10.4961C29.9206 10.7253 29.7773 10.9609 29.582 11.2031C29.3893 11.4453 29.0482 11.7904 28.5586 12.2383L27.8242 12.9297V12.9844H30.3125V14Z" fill="white"/>
</svg>
