<svg width="24" height="23" viewBox="0 0 24 23" fill="none" xmlns="http://www.w3.org/2000/svg">
<path fill-rule="evenodd" clip-rule="evenodd" d="M16.2742 17.8504C18.1158 16.7294 16.5945 14.007 14.913 14.7277C17.6354 12.8861 15.5536 10.564 13.8721 11.2046C16.6745 9.52315 14.8329 6.96093 13.3116 7.52141L19.3168 3.91829C21.1584 2.79732 19.1567 -0.00510253 17.3151 1.11587L7.78683 6.96093L8.74766 4.39871C9.78856 1.51621 7.38648 -1.76663 6.26551 1.11587C5.38475 2.87739 -0.860655 13.7668 0.100177 15.3682C1.62149 17.9304 2.66239 19.6119 4.18371 22.1741C5.22461 23.8556 14.5927 18.8112 16.2742 17.8504Z" fill="white"/>
<path fill-rule="evenodd" clip-rule="evenodd" d="M19.8003 14.248C18.0388 14.1679 16.6776 12.7266 16.6776 10.9651C16.5975 8.40291 18.4391 7.1218 19.8003 4.63965C21.1615 7.1218 23.003 8.40291 23.003 10.9651C22.923 12.7266 21.5618 14.1679 19.8003 14.248ZM17.0779 10.9651C17.0779 10.0043 17.3181 9.28367 17.7185 8.64311C16.9178 10.7249 17.6384 13.2071 20.0405 13.8476C18.4391 14.0078 17.158 12.4064 17.0779 10.9651Z" fill="white"/>
</svg>
