<svg width="10" height="25" viewBox="0 0 10 25" fill="none" xmlns="http://www.w3.org/2000/svg">
<path d="M7.77296 16.8567V2.29814C7.77296 1.02842 6.74489 0 5.47443 0C4.20641 0 3.17799 1.02842 3.17799 2.29814V16.8562C1.91876 17.6293 1.07936 19.0182 1.07936 20.603C1.07936 23.032 3.04718 24.9995 5.47428 24.9995C7.9025 24.9995 9.87071 23.032 9.87071 20.603C9.8709 19.0186 9.03131 17.6296 7.77301 16.8566L7.77296 16.8567ZM5.47443 24.3387C3.41544 24.3387 1.74039 22.6629 1.74039 20.6031C1.74039 19.2949 2.40646 18.1055 3.52413 17.4201L3.83923 17.2267V2.298C3.83923 1.39507 4.57277 0.660747 5.47438 0.660747C6.37712 0.660747 7.11164 1.39507 7.11164 2.298V17.2262L7.42673 17.4191C8.54289 18.1051 9.20993 19.2955 9.20993 20.6028C9.20993 22.6629 7.53415 24.3385 5.47439 24.3385L5.47443 24.3387ZM2.288 8.39043H0.262024V9.05171H2.288V8.39043ZM2.288 1.96758H0.262024V2.62866H2.288V1.96758ZM2.288 5.83969V5.17861L0.912414 5.1788V5.83989L2.288 5.83969ZM2.288 14.8138H0.262024V15.4751H2.288V14.8138ZM2.288 12.2633V11.6022L0.912414 11.6024V12.2635L2.288 12.2633Z" fill="white"/>
</svg>
