<svg width="30" height="30" viewBox="0 0 30 30" fill="none" xmlns="http://www.w3.org/2000/svg">
<circle cx="15" cy="15" r="14.5" fill="#626262" stroke="#626262"/>
<path d="M7.39343 7.25494L9.36746 6.02212L7.39343 4.78746V7.25494ZM16.4048 19.0477V5.96201C16.4048 5.02576 15.6465 4.26758 14.7111 4.26758C13.7752 4.26758 13.0168 5.02576 13.0168 5.96201V19.0769C11.9336 19.6845 11.1929 20.8291 11.1929 22.1583C11.1929 24.1162 12.7805 25.704 14.7378 25.704C16.6962 25.704 18.2839 24.1164 18.2839 22.1583C18.2839 20.8071 17.518 19.6459 16.4048 19.0475V19.0477Z" fill="white"/>
<path d="M16.7602 18.8339V6.02237C16.7602 4.90501 15.8555 4 14.7375 4C13.6216 4 12.7166 4.90501 12.7166 6.02237V18.8335C11.6085 19.5138 10.8698 20.736 10.8698 22.1307C10.8698 24.2682 12.6015 25.9995 14.7374 25.9995C16.8742 25.9995 18.6062 24.2682 18.6062 22.1307C18.6064 20.7364 17.8675 19.5141 16.7602 18.8338L16.7602 18.8339ZM14.7375 25.418C12.9256 25.418 11.4515 23.9433 11.4515 22.1307C11.4515 20.9795 12.0377 19.9328 13.0212 19.3297L13.2985 19.1595V6.02224C13.2985 5.22766 13.944 4.58146 14.7374 4.58146C15.5319 4.58146 16.1782 5.22766 16.1782 6.02224V19.1591L16.4555 19.3288C17.4377 19.9325 18.0247 20.9801 18.0247 22.1305C18.0247 23.9433 16.55 25.4179 14.7375 25.4179L14.7375 25.418ZM11.9334 11.3836H10.1506V11.9655H11.9334V11.3836ZM11.9334 5.73147H10.1506V6.31322H11.9334V5.73147ZM11.9334 9.13893V8.55718L10.7229 8.55735V9.1391L11.9334 9.13893ZM11.9334 17.0362H10.1506V17.6181H11.9334V17.0362ZM11.9334 14.7917V14.21L10.7229 14.2101V14.7919L11.9334 14.7917Z" fill="white"/>
</svg>
