<svg width="18" height="23" viewBox="0 0 18 23" fill="none" xmlns="http://www.w3.org/2000/svg">
<path d="M17.2239 21.4764C17.3147 21.4182 17.3474 21.2693 17.2644 21.173L15.6177 18.8342C14.8842 17.7886 14.5262 16.9294 14.1785 15.7862L13.0546 12.1309C12.9601 11.85 12.8408 11.5636 12.6609 11.3159L5.94667 1.82855C5.49001 1.18193 4.77483 0.764843 3.96947 0.640234C3.16411 0.515625 2.36244 0.730105 1.68555 1.20615C0.271221 2.197 -0.0930013 4.09474 0.834259 5.44308L7.54308 14.9553C7.72295 15.2029 7.93855 15.4063 8.18442 15.5904L11.2729 17.8812C12.237 18.5871 12.9086 19.2028 13.6475 20.2235L15.3191 22.5678C15.3773 22.6587 15.5262 22.6913 15.6225 22.6084L17.2239 21.4764ZM2.65864 5.19272C2.1826 4.51582 2.33988 3.5615 3.02222 3.06063C3.69911 2.58459 4.65343 2.74187 5.1543 3.42421C5.63035 4.10111 5.47306 5.05542 4.79072 5.5563C4.10839 6.05717 3.15951 5.87505 2.65864 5.19272ZM8.59589 13.8331L4.98136 8.7207C4.82086 8.50334 4.88621 8.20542 5.09812 8.06975L7.03798 6.69976C7.25533 6.53926 7.55326 6.60461 7.68893 6.81652L11.3035 11.9289C11.464 12.1463 11.3986 12.4442 11.1867 12.5799L9.24684 13.9499C9.03493 14.0855 8.73156 14.045 8.59589 13.8331Z" fill="white"/>
</svg>
