<svg width="24" height="24" viewBox="0 0 24 24" fill="none" xmlns="http://www.w3.org/2000/svg">
<path d="M5.33333 10.8H8V13.2H5.33333V10.8ZM24 4.8V21.6C24 22.92 22.8 24 21.3333 24H2.66667C1.18667 24 0 22.92 0 21.6L0.0133333 4.8C0.0133333 3.48 1.18667 2.4 2.66667 2.4H4V0H6.66667V2.4H17.3333V0H20V2.4H21.3333C22.8 2.4 24 3.48 24 4.8ZM2.66667 7.2H21.3333V4.8H2.66667V7.2ZM21.3333 21.6V9.6H2.66667V21.6H21.3333ZM16 13.2H18.6667V10.8H16V13.2ZM10.6667 13.2H13.3333V10.8H10.6667V13.2Z" fill="#898989" fill-opacity="0.8"/>
</svg>
