<svg width="16" height="16" viewBox="0 0 16 16" fill="none" xmlns="http://www.w3.org/2000/svg">
<path d="M14.1875 0.125H1.8125C1.36496 0.125 0.935773 0.302841 0.619262 0.619262C0.302855 0.935805 0.125 1.36496 0.125 1.8125V14.1875C0.125 14.635 0.302841 15.0642 0.619262 15.3807C0.935805 15.6971 1.36496 15.875 1.8125 15.875H14.1875C14.635 15.875 15.0642 15.6972 15.3807 15.3807C15.6971 15.0642 15.875 14.635 15.875 14.1875V1.8125C15.875 1.36496 15.6972 0.935773 15.3807 0.619262C15.0642 0.302855 14.635 0.125 14.1875 0.125ZM12.4606 4.83313L11.3356 7.64563C11.294 7.75027 11.2217 7.83994 11.1285 7.90312C11.0353 7.96629 10.9251 8.00007 10.8125 7.99993H8.5625V5.18743C8.5625 4.98652 8.45525 4.80071 8.28125 4.70034C8.10726 4.59982 7.89274 4.59982 7.71875 4.70034C7.54476 4.80073 7.4375 4.98654 7.4375 5.18743V7.99993H5.1875C5.07489 8.00007 4.96476 7.96629 4.87151 7.90312C4.77826 7.83994 4.70603 7.75027 4.66442 7.64563L3.53942 4.83313C3.4724 4.66174 3.49341 4.46852 3.59559 4.31552C3.64626 4.2312 4.92316 2.37493 7.99996 2.37493C11.0768 2.37493 12.3537 4.23122 12.4043 4.31552C12.5065 4.46851 12.5275 4.66173 12.4605 4.83313H12.4606Z" fill="white"/>
</svg>
