<svg width="30" height="30" viewBox="0 0 30 30" fill="none" xmlns="http://www.w3.org/2000/svg">
<circle cx="15" cy="15" r="14.5" fill="#626262" stroke="#626262"/>
<path d="M21.1875 7.125H8.8125C8.36496 7.125 7.93577 7.30284 7.61926 7.61926C7.30286 7.93581 7.125 8.36496 7.125 8.8125V21.1875C7.125 21.635 7.30284 22.0642 7.61926 22.3807C7.93581 22.6971 8.36496 22.875 8.8125 22.875H21.1875C21.635 22.875 22.0642 22.6972 22.3807 22.3807C22.6971 22.0642 22.875 21.635 22.875 21.1875V8.8125C22.875 8.36496 22.6972 7.93577 22.3807 7.61926C22.0642 7.30286 21.635 7.125 21.1875 7.125ZM19.4606 11.8331L18.3356 14.6456C18.294 14.7503 18.2217 14.8399 18.1285 14.9031C18.0353 14.9663 17.9251 15.0001 17.8125 14.9999H15.5625V12.1874C15.5625 11.9865 15.4552 11.8007 15.2813 11.7003C15.1073 11.5998 14.8927 11.5998 14.7188 11.7003C14.5448 11.8007 14.4375 11.9865 14.4375 12.1874V14.9999H12.1875C12.0749 15.0001 11.9648 14.9663 11.8715 14.9031C11.7783 14.8399 11.706 14.7503 11.6644 14.6456L10.5394 11.8331C10.4724 11.6617 10.4934 11.4685 10.5956 11.3155C10.6463 11.2312 11.9232 9.37493 15 9.37493C18.0768 9.37493 19.3537 11.2312 19.4043 11.3155C19.5065 11.4685 19.5275 11.6617 19.4605 11.8331H19.4606Z" fill="white"/>
</svg>
