<svg xmlns="http://www.w3.org/2000/svg" width="267" height="294" viewBox="0 0 267 294" fill="none">
<line x1="17" y1="275.5" x2="267" y2="275.5" stroke="#898989"/>
<line x1="39.8049" y1="278" x2="39.8049" y2="273" stroke="#898989"/>
<line x1="149.357" y1="278" x2="149.357" y2="273" stroke="#898989"/>
<line x1="185.668" y1="278" x2="185.668" y2="273" stroke="#898989"/>
<line x1="221.797" y1="278" x2="221.797" y2="273" stroke="#898989"/>
<line x1="262.594" y1="278" x2="262.594" y2="273" stroke="#898989"/>
<line x1="112.451" y1="278" x2="112.451" y2="273" stroke="#898989"/>
<line x1="75.5518" y1="278" x2="75.5518" y2="273" stroke="#898989"/>
<line x1="27.5" y1="21" x2="27.5" y2="288" stroke="#898989"/>
<line x1="25" y1="20.5" x2="30" y2="20.5" stroke="#898989"/>
<line x1="25" y1="60.5" x2="30" y2="60.5" stroke="#898989"/>
<line x1="25" y1="101" x2="30" y2="101" stroke="#898989" stroke-width="2"/>
<line x1="25" y1="146.5" x2="30" y2="146.5" stroke="#898989"/>
<line x1="25" y1="226.5" x2="30" y2="226.5" stroke="#898989"/>
<line x1="25" y1="266.5" x2="30" y2="266.5" stroke="#898989"/>
<line x1="25" y1="206.5" x2="30" y2="206.5" stroke="#898989"/>
<line x1="25" y1="246.5" x2="30" y2="246.5" stroke="#898989"/>
<line x1="25" y1="186.5" x2="30" y2="186.5" stroke="#898989"/>
<line x1="25" y1="166.5" x2="30" y2="166.5" stroke="#898989"/>
<line x1="25" y1="121.5" x2="30" y2="121.5" stroke="#898989"/>
<line x1="25" y1="80.5" x2="30" y2="80.5" stroke="#898989"/>
<line x1="25" y1="40.5" x2="30" y2="40.5" stroke="#898989"/>

<path d="M39.8797 290.445C39.8797 290.784 39.7964 291.076 39.6297 291.32C39.4656 291.565 39.2287 291.753 38.9188 291.883C38.6115 292.013 38.2443 292.078 37.8172 292.078C37.6089 292.078 37.4097 292.066 37.2195 292.043C37.0294 292.02 36.8498 291.986 36.6805 291.941C36.5138 291.895 36.3615 291.839 36.2235 291.773V290.891C36.4552 290.992 36.7143 291.085 37.0008 291.168C37.2873 291.249 37.5789 291.289 37.8758 291.289C38.118 291.289 38.3185 291.258 38.4774 291.195C38.6388 291.13 38.7586 291.039 38.8367 290.922C38.9149 290.802 38.9539 290.663 38.9539 290.504C38.9539 290.335 38.9083 290.191 38.8172 290.074C38.7261 289.957 38.588 289.85 38.4031 289.754C38.2208 289.655 37.9917 289.549 37.7156 289.438C37.5281 289.362 37.3485 289.276 37.1766 289.18C37.0073 289.083 36.8563 288.97 36.7235 288.84C36.5906 288.71 36.4852 288.556 36.407 288.379C36.3315 288.199 36.2938 287.988 36.2938 287.746C36.2938 287.423 36.3706 287.147 36.5242 286.918C36.6805 286.689 36.8992 286.513 37.1805 286.391C37.4643 286.268 37.7951 286.207 38.1727 286.207C38.4722 286.207 38.7534 286.238 39.0164 286.301C39.282 286.363 39.5425 286.452 39.7977 286.566L39.5008 287.32C39.2664 287.224 39.0386 287.147 38.8172 287.09C38.5985 287.033 38.3745 287.004 38.1453 287.004C37.9474 287.004 37.7794 287.034 37.6414 287.094C37.5034 287.154 37.3979 287.238 37.325 287.348C37.2547 287.454 37.2195 287.582 37.2195 287.73C37.2195 287.897 37.2599 288.038 37.3406 288.152C37.424 288.264 37.5516 288.367 37.7235 288.461C37.8979 288.555 38.1219 288.659 38.3953 288.773C38.7104 288.904 38.9774 289.04 39.1961 289.184C39.4175 289.327 39.5867 289.499 39.7039 289.699C39.8211 289.897 39.8797 290.146 39.8797 290.445ZM44.657 287.676V292H43.9344L43.8094 291.418H43.7586C43.6675 291.566 43.5516 291.69 43.411 291.789C43.2703 291.885 43.1141 291.957 42.9422 292.004C42.7703 292.053 42.5893 292.078 42.3992 292.078C42.0737 292.078 41.7951 292.023 41.5633 291.914C41.3341 291.802 41.1583 291.63 41.036 291.398C40.9136 291.167 40.8524 290.867 40.8524 290.5V287.676H41.7742V290.328C41.7742 290.664 41.8419 290.915 41.9774 291.082C42.1154 291.249 42.3289 291.332 42.618 291.332C42.8966 291.332 43.118 291.275 43.282 291.16C43.4461 291.046 43.562 290.876 43.6297 290.652C43.7 290.428 43.7352 290.154 43.7352 289.828V287.676H44.657ZM48.2274 287.594C48.7143 287.594 49.0932 287.72 49.3641 287.973C49.6375 288.223 49.7742 288.625 49.7742 289.18V292H48.8563V289.352C48.8563 289.016 48.7873 288.764 48.6492 288.598C48.5112 288.428 48.2977 288.344 48.0086 288.344C47.5893 288.344 47.2977 288.473 47.1336 288.73C46.9722 288.988 46.8914 289.362 46.8914 289.852V292H45.9735V287.676H46.6883L46.8172 288.262H46.868C46.9617 288.111 47.0776 287.987 47.2156 287.891C47.3563 287.792 47.5125 287.717 47.6844 287.668C47.8589 287.618 48.0399 287.594 48.2274 287.594Z" fill="#898989"/>
<path d="M71.5631 292L69.9185 287.23H69.8834C69.8912 287.337 69.9003 287.483 69.9107 287.668C69.9211 287.853 69.9302 288.051 69.9381 288.262C69.9459 288.473 69.9498 288.674 69.9498 288.867V292H69.0982V286.289H70.4146L71.9966 290.848H72.0201L73.6568 286.289H74.9693V292H74.0748V288.82C74.0748 288.646 74.0774 288.457 74.0826 288.254C74.0904 288.051 74.0982 287.858 74.106 287.676C74.1164 287.493 74.1243 287.348 74.1295 287.238H74.0982L72.3912 292H71.5631ZM80.2076 289.828C80.2076 290.188 80.1607 290.507 80.067 290.785C79.9732 291.064 79.8365 291.299 79.6568 291.492C79.4771 291.682 79.261 291.828 79.0084 291.93C78.7558 292.029 78.4706 292.078 78.1529 292.078C77.856 292.078 77.5839 292.029 77.3365 291.93C77.0891 291.828 76.8743 291.682 76.692 291.492C76.5123 291.299 76.3729 291.064 76.274 290.785C76.175 290.507 76.1256 290.188 76.1256 289.828C76.1256 289.352 76.2076 288.948 76.3716 288.617C76.5383 288.284 76.7753 288.03 77.0826 287.855C77.3899 287.681 77.7558 287.594 78.1802 287.594C78.5787 287.594 78.9302 287.681 79.2349 287.855C79.5396 288.03 79.7779 288.284 79.9498 288.617C80.1216 288.951 80.2076 289.354 80.2076 289.828ZM77.0709 289.828C77.0709 290.143 77.1086 290.413 77.1841 290.637C77.2623 290.861 77.3821 291.033 77.5435 291.152C77.705 291.27 77.9133 291.328 78.1685 291.328C78.4237 291.328 78.6321 291.27 78.7935 291.152C78.955 291.033 79.0735 290.861 79.149 290.637C79.2245 290.413 79.2623 290.143 79.2623 289.828C79.2623 289.513 79.2245 289.246 79.149 289.027C79.0735 288.806 78.955 288.638 78.7935 288.523C78.6321 288.406 78.4224 288.348 78.1646 288.348C77.7844 288.348 77.5071 288.475 77.3326 288.73C77.1581 288.986 77.0709 289.352 77.0709 289.828ZM83.5162 287.594C84.0032 287.594 84.3821 287.72 84.6529 287.973C84.9263 288.223 85.0631 288.625 85.0631 289.18V292H84.1451V289.352C84.1451 289.016 84.0761 288.764 83.9381 288.598C83.8 288.428 83.5865 288.344 83.2974 288.344C82.8782 288.344 82.5865 288.473 82.4224 288.73C82.261 288.988 82.1802 289.362 82.1802 289.852V292H81.2623V287.676H81.9771L82.106 288.262H82.1568C82.2506 288.111 82.3664 287.987 82.5045 287.891C82.6451 287.792 82.8013 287.717 82.9732 287.668C83.1477 287.618 83.3287 287.594 83.5162 287.594Z" fill="#898989"/>
<path d="M105.955 292H105.014V287.086H103.342V286.289H107.623V287.086H105.955V292ZM112.174 287.676V292H111.451L111.326 291.418H111.276C111.185 291.566 111.069 291.69 110.928 291.789C110.787 291.885 110.631 291.957 110.459 292.004C110.287 292.053 110.106 292.078 109.916 292.078C109.591 292.078 109.312 292.023 109.08 291.914C108.851 291.802 108.675 291.63 108.553 291.398C108.431 291.167 108.369 290.867 108.369 290.5V287.676H109.291V290.328C109.291 290.664 109.359 290.915 109.494 291.082C109.632 291.249 109.846 291.332 110.135 291.332C110.414 291.332 110.635 291.275 110.799 291.16C110.963 291.046 111.079 290.876 111.147 290.652C111.217 290.428 111.252 290.154 111.252 289.828V287.676H112.174ZM115.213 287.594C115.599 287.594 115.929 287.673 116.205 287.832C116.481 287.991 116.694 288.216 116.842 288.508C116.991 288.799 117.065 289.148 117.065 289.555V290.047H114.178C114.188 290.466 114.3 290.789 114.514 291.016C114.73 291.242 115.032 291.355 115.42 291.355C115.696 291.355 115.944 291.329 116.162 291.277C116.384 291.223 116.612 291.143 116.846 291.039V291.785C116.63 291.887 116.41 291.961 116.186 292.008C115.962 292.055 115.694 292.078 115.381 292.078C114.957 292.078 114.583 291.996 114.26 291.832C113.94 291.665 113.688 291.418 113.506 291.09C113.326 290.762 113.237 290.354 113.237 289.867C113.237 289.383 113.319 288.971 113.483 288.633C113.647 288.294 113.877 288.036 114.174 287.859C114.471 287.682 114.817 287.594 115.213 287.594ZM115.213 288.285C114.924 288.285 114.69 288.379 114.51 288.566C114.333 288.754 114.229 289.029 114.198 289.391H116.166C116.164 289.174 116.127 288.983 116.057 288.816C115.989 288.65 115.885 288.52 115.744 288.426C115.606 288.332 115.429 288.285 115.213 288.285Z" fill="#898989"/>
<path d="M143.742 286.289L142.25 292H141.227L140.274 288.578C140.25 288.495 140.224 288.396 140.196 288.281C140.167 288.167 140.138 288.049 140.11 287.93C140.084 287.81 140.06 287.701 140.039 287.602C140.021 287.5 140.008 287.422 140 287.367C139.995 287.422 139.983 287.499 139.965 287.598C139.947 287.697 139.925 287.806 139.899 287.926C139.875 288.043 139.849 288.16 139.821 288.277C139.792 288.392 139.766 288.493 139.742 288.582L138.805 292H137.785L136.297 286.289H137.239L138.063 289.637C138.089 289.743 138.115 289.859 138.141 289.984C138.17 290.107 138.196 290.23 138.219 290.355C138.245 290.48 138.269 290.603 138.289 290.723C138.31 290.84 138.327 290.947 138.34 291.043C138.353 290.944 138.37 290.835 138.391 290.715C138.412 290.592 138.434 290.469 138.457 290.344C138.483 290.216 138.509 290.094 138.535 289.977C138.564 289.859 138.593 289.754 138.621 289.66L139.551 286.289H140.465L141.414 289.672C141.443 289.768 141.47 289.876 141.496 289.996C141.525 290.116 141.552 290.238 141.578 290.363C141.604 290.488 141.628 290.609 141.649 290.727C141.67 290.844 141.687 290.949 141.7 291.043C141.718 290.915 141.741 290.77 141.77 290.605C141.798 290.441 141.831 290.275 141.867 290.105C141.904 289.936 141.94 289.78 141.977 289.637L142.797 286.289H143.742ZM146.18 287.594C146.565 287.594 146.896 287.673 147.172 287.832C147.448 287.991 147.66 288.216 147.809 288.508C147.957 288.799 148.032 289.148 148.032 289.555V290.047H145.145C145.155 290.466 145.267 290.789 145.481 291.016C145.697 291.242 145.999 291.355 146.387 291.355C146.663 291.355 146.91 291.329 147.129 291.277C147.351 291.223 147.578 291.143 147.813 291.039V291.785C147.597 291.887 147.377 291.961 147.153 292.008C146.929 292.055 146.66 292.078 146.348 292.078C145.923 292.078 145.55 291.996 145.227 291.832C144.907 291.665 144.655 291.418 144.473 291.09C144.293 290.762 144.203 290.354 144.203 289.867C144.203 289.383 144.285 288.971 144.45 288.633C144.614 288.294 144.844 288.036 145.141 287.859C145.438 287.682 145.784 287.594 146.18 287.594ZM146.18 288.285C145.891 288.285 145.657 288.379 145.477 288.566C145.3 288.754 145.196 289.029 145.164 289.391H147.133C147.131 289.174 147.094 288.983 147.024 288.816C146.956 288.65 146.852 288.52 146.711 288.426C146.573 288.332 146.396 288.285 146.18 288.285ZM150.52 292.078C150.004 292.078 149.59 291.891 149.278 291.516C148.968 291.138 148.813 290.582 148.813 289.848C148.813 289.105 148.97 288.544 149.285 288.164C149.603 287.784 150.021 287.594 150.539 287.594C150.758 287.594 150.95 287.624 151.114 287.684C151.278 287.741 151.418 287.819 151.535 287.918C151.655 288.017 151.757 288.128 151.84 288.25H151.883C151.87 288.169 151.854 288.053 151.836 287.902C151.821 287.749 151.813 287.607 151.813 287.477V285.922H152.735V292H152.016L151.852 291.41H151.813C151.735 291.535 151.636 291.648 151.516 291.75C151.399 291.849 151.258 291.928 151.094 291.988C150.933 292.048 150.741 292.078 150.52 292.078ZM150.778 291.332C151.171 291.332 151.448 291.219 151.61 290.992C151.771 290.766 151.854 290.426 151.86 289.973V289.852C151.86 289.367 151.782 288.996 151.625 288.738C151.469 288.478 151.184 288.348 150.77 288.348C150.439 288.348 150.187 288.482 150.012 288.75C149.84 289.016 149.754 289.387 149.754 289.863C149.754 290.34 149.84 290.704 150.012 290.957C150.187 291.207 150.442 291.332 150.778 291.332Z" fill="#898989"/>
<path d="M173.514 292H172.572V287.086H170.9V286.289H175.182V287.086H173.514V292ZM176.881 285.922V287.449C176.881 287.608 176.876 287.763 176.865 287.914C176.857 288.065 176.848 288.182 176.838 288.266H176.889C176.98 288.115 177.092 287.991 177.225 287.895C177.357 287.796 177.506 287.721 177.67 287.672C177.837 287.622 178.014 287.598 178.201 287.598C178.532 287.598 178.813 287.654 179.045 287.766C179.277 287.875 179.454 288.046 179.576 288.277C179.701 288.509 179.764 288.81 179.764 289.18V292H178.846V289.352C178.846 289.016 178.777 288.764 178.639 288.598C178.501 288.428 178.287 288.344 177.998 288.344C177.719 288.344 177.498 288.402 177.334 288.52C177.173 288.634 177.057 288.805 176.986 289.031C176.916 289.255 176.881 289.529 176.881 289.852V292H175.963V285.922H176.881ZM184.818 287.676V292H184.096L183.971 291.418H183.92C183.829 291.566 183.713 291.69 183.572 291.789C183.432 291.885 183.275 291.957 183.104 292.004C182.932 292.053 182.751 292.078 182.561 292.078C182.235 292.078 181.956 292.023 181.725 291.914C181.496 291.802 181.32 291.63 181.197 291.398C181.075 291.167 181.014 290.867 181.014 290.5V287.676H181.936V290.328C181.936 290.664 182.003 290.915 182.139 291.082C182.277 291.249 182.49 291.332 182.779 291.332C183.058 291.332 183.279 291.275 183.443 291.16C183.607 291.046 183.723 290.876 183.791 290.652C183.861 290.428 183.897 290.154 183.897 289.828V287.676H184.818Z" fill="#898989"/>
<path d="M208.148 292H207.219V286.289H210.445V287.078H208.148V288.859H210.297V289.645H208.148V292ZM213.582 287.594C213.655 287.594 213.734 287.598 213.82 287.605C213.906 287.613 213.98 287.624 214.043 287.637L213.957 288.496C213.902 288.48 213.834 288.469 213.754 288.461C213.676 288.453 213.605 288.449 213.543 288.449C213.379 288.449 213.222 288.477 213.074 288.531C212.926 288.583 212.794 288.664 212.679 288.773C212.565 288.88 212.475 289.014 212.41 289.176C212.345 289.337 212.312 289.525 212.312 289.738V292H211.39V287.676H212.109L212.234 288.438H212.277C212.363 288.284 212.47 288.143 212.597 288.016C212.725 287.888 212.871 287.786 213.035 287.711C213.202 287.633 213.384 287.594 213.582 287.594ZM215.761 287.676V292H214.844V287.676H215.761ZM215.308 286.02C215.449 286.02 215.57 286.057 215.672 286.133C215.776 286.208 215.828 286.339 215.828 286.523C215.828 286.706 215.776 286.836 215.672 286.914C215.57 286.99 215.449 287.027 215.308 287.027C215.163 287.027 215.039 286.99 214.937 286.914C214.838 286.836 214.789 286.706 214.789 286.523C214.789 286.339 214.838 286.208 214.937 286.133C215.039 286.057 215.163 286.02 215.308 286.02Z" fill="#898989"/>
<path d="M243.293 290.445C243.293 290.784 243.209 291.076 243.043 291.32C242.878 291.565 242.642 291.753 242.332 291.883C242.024 292.013 241.657 292.078 241.23 292.078C241.022 292.078 240.822 292.066 240.632 292.043C240.442 292.02 240.263 291.986 240.093 291.941C239.927 291.895 239.774 291.839 239.636 291.773V290.891C239.868 290.992 240.127 291.085 240.414 291.168C240.7 291.249 240.992 291.289 241.289 291.289C241.531 291.289 241.731 291.258 241.89 291.195C242.052 291.13 242.171 291.039 242.25 290.922C242.328 290.802 242.367 290.663 242.367 290.504C242.367 290.335 242.321 290.191 242.23 290.074C242.139 289.957 242.001 289.85 241.816 289.754C241.634 289.655 241.405 289.549 241.128 289.438C240.941 289.362 240.761 289.276 240.589 289.18C240.42 289.083 240.269 288.97 240.136 288.84C240.003 288.71 239.898 288.556 239.82 288.379C239.744 288.199 239.707 287.988 239.707 287.746C239.707 287.423 239.783 287.147 239.937 286.918C240.093 286.689 240.312 286.513 240.593 286.391C240.877 286.268 241.208 286.207 241.586 286.207C241.885 286.207 242.166 286.238 242.429 286.301C242.695 286.363 242.955 286.452 243.211 286.566L242.914 287.32C242.679 287.224 242.451 287.147 242.23 287.09C242.011 287.033 241.787 287.004 241.558 287.004C241.36 287.004 241.192 287.034 241.054 287.094C240.916 287.154 240.811 287.238 240.738 287.348C240.668 287.454 240.632 287.582 240.632 287.73C240.632 287.897 240.673 288.038 240.753 288.152C240.837 288.264 240.964 288.367 241.136 288.461C241.311 288.555 241.535 288.659 241.808 288.773C242.123 288.904 242.39 289.04 242.609 289.184C242.83 289.327 243 289.499 243.117 289.699C243.234 289.897 243.293 290.146 243.293 290.445ZM245.996 287.594C246.543 287.594 246.955 287.715 247.234 287.957C247.515 288.199 247.656 288.577 247.656 289.09V292H247.003L246.828 291.387H246.796C246.674 291.543 246.548 291.672 246.418 291.773C246.287 291.875 246.136 291.951 245.964 292C245.795 292.052 245.588 292.078 245.343 292.078C245.086 292.078 244.855 292.031 244.652 291.938C244.449 291.841 244.289 291.695 244.171 291.5C244.054 291.305 243.996 291.057 243.996 290.758C243.996 290.312 244.161 289.978 244.492 289.754C244.825 289.53 245.328 289.406 246 289.383L246.75 289.355V289.129C246.75 288.829 246.679 288.616 246.539 288.488C246.401 288.361 246.205 288.297 245.953 288.297C245.737 288.297 245.527 288.328 245.324 288.391C245.121 288.453 244.923 288.53 244.73 288.621L244.433 287.973C244.644 287.861 244.884 287.77 245.152 287.699C245.423 287.629 245.704 287.594 245.996 287.594ZM246.746 289.934L246.187 289.953C245.729 289.969 245.407 290.047 245.222 290.188C245.037 290.328 244.945 290.521 244.945 290.766C244.945 290.979 245.009 291.135 245.136 291.234C245.264 291.331 245.432 291.379 245.64 291.379C245.958 291.379 246.221 291.289 246.429 291.109C246.64 290.927 246.746 290.66 246.746 290.309V289.934ZM250.55 291.336C250.67 291.336 250.789 291.326 250.906 291.305C251.023 291.281 251.13 291.254 251.226 291.223V291.918C251.125 291.962 250.993 292 250.832 292.031C250.67 292.062 250.502 292.078 250.328 292.078C250.083 292.078 249.863 292.038 249.668 291.957C249.472 291.874 249.317 291.732 249.203 291.531C249.088 291.331 249.031 291.053 249.031 290.699V288.375H248.441V287.965L249.074 287.641L249.375 286.715H249.953V287.676H251.191V288.375H249.953V290.688C249.953 290.906 250.007 291.069 250.117 291.176C250.226 291.283 250.371 291.336 250.55 291.336Z" fill="#898989"/>
<path d="M5.34985 172.473V171.695H7.36548V172.473H5.34985ZM11.8733 171.371C11.8733 171.832 11.8368 172.245 11.7639 172.609C11.6936 172.971 11.5816 173.279 11.428 173.531C11.2743 173.784 11.0738 173.977 10.8264 174.109C10.579 174.242 10.2795 174.309 9.92798 174.309C9.48787 174.309 9.12459 174.193 8.83813 173.961C8.55168 173.727 8.33944 173.391 8.20142 172.953C8.0634 172.513 7.99438 171.986 7.99438 171.371C7.99438 170.757 8.05688 170.23 8.18188 169.793C8.30949 169.353 8.51522 169.016 8.79907 168.781C9.08293 168.547 9.45923 168.43 9.92798 168.43C10.3707 168.43 10.7353 168.547 11.0217 168.781C11.3108 169.013 11.5243 169.349 11.6624 169.789C11.803 170.227 11.8733 170.754 11.8733 171.371ZM8.92017 171.371C8.92017 171.853 8.95142 172.255 9.01392 172.578C9.07902 172.901 9.18579 173.143 9.33423 173.305C9.48267 173.464 9.68058 173.543 9.92798 173.543C10.1754 173.543 10.3733 173.464 10.5217 173.305C10.6702 173.146 10.7769 172.905 10.842 172.582C10.9097 172.259 10.9436 171.855 10.9436 171.371C10.9436 170.892 10.9111 170.491 10.8459 170.168C10.7808 169.845 10.6741 169.603 10.5256 169.441C10.3772 169.277 10.178 169.195 9.92798 169.195C9.67798 169.195 9.47876 169.277 9.33032 169.441C9.18449 169.603 9.07902 169.845 9.01392 170.168C8.95142 170.491 8.92017 170.892 8.92017 171.371ZM12.7483 173.746C12.7483 173.533 12.803 173.383 12.9124 173.297C13.0243 173.208 13.1597 173.164 13.3186 173.164C13.4775 173.164 13.6129 173.208 13.7249 173.297C13.8394 173.383 13.8967 173.533 13.8967 173.746C13.8967 173.954 13.8394 174.105 13.7249 174.199C13.6129 174.29 13.4775 174.336 13.3186 174.336C13.1597 174.336 13.0243 174.29 12.9124 174.199C12.803 174.105 12.7483 173.954 12.7483 173.746ZM17.4788 174.23H16.5569V170.555C16.5569 170.432 16.5582 170.31 16.5608 170.188C16.5634 170.065 16.566 169.945 16.5686 169.828C16.5738 169.711 16.5803 169.599 16.5881 169.492C16.5334 169.552 16.4657 169.617 16.385 169.688C16.3069 169.758 16.2236 169.831 16.135 169.906L15.4788 170.43L15.0178 169.848L16.7131 168.52H17.4788V174.23Z" fill="#898989"/>
<path d="M5.34985 198.176V197.398H7.36548V198.176H5.34985ZM11.8733 197.074C11.8733 197.535 11.8368 197.948 11.7639 198.312C11.6936 198.674 11.5816 198.982 11.428 199.234C11.2743 199.487 11.0738 199.68 10.8264 199.812C10.579 199.945 10.2795 200.012 9.92798 200.012C9.48787 200.012 9.12459 199.896 8.83813 199.664C8.55168 199.43 8.33944 199.094 8.20142 198.656C8.0634 198.216 7.99438 197.689 7.99438 197.074C7.99438 196.46 8.05688 195.934 8.18188 195.496C8.30949 195.056 8.51522 194.719 8.79907 194.484C9.08293 194.25 9.45923 194.133 9.92798 194.133C10.3707 194.133 10.7353 194.25 11.0217 194.484C11.3108 194.716 11.5243 195.052 11.6624 195.492C11.803 195.93 11.8733 196.457 11.8733 197.074ZM8.92017 197.074C8.92017 197.556 8.95142 197.958 9.01392 198.281C9.07902 198.604 9.18579 198.846 9.33423 199.008C9.48267 199.167 9.68058 199.246 9.92798 199.246C10.1754 199.246 10.3733 199.167 10.5217 199.008C10.6702 198.849 10.7769 198.608 10.842 198.285C10.9097 197.962 10.9436 197.559 10.9436 197.074C10.9436 196.595 10.9111 196.194 10.8459 195.871C10.7808 195.548 10.6741 195.306 10.5256 195.145C10.3772 194.98 10.178 194.898 9.92798 194.898C9.67798 194.898 9.47876 194.98 9.33032 195.145C9.18449 195.306 9.07902 195.548 9.01392 195.871C8.95142 196.194 8.92017 196.595 8.92017 197.074ZM12.7483 199.449C12.7483 199.236 12.803 199.086 12.9124 199C13.0243 198.911 13.1597 198.867 13.3186 198.867C13.4775 198.867 13.6129 198.911 13.7249 199C13.8394 199.086 13.8967 199.236 13.8967 199.449C13.8967 199.658 13.8394 199.809 13.7249 199.902C13.6129 199.993 13.4775 200.039 13.3186 200.039C13.1597 200.039 13.0243 199.993 12.9124 199.902C12.803 199.809 12.7483 199.658 12.7483 199.449ZM18.6467 199.934H14.7795V199.242L16.26 197.742C16.5465 197.451 16.7821 197.199 16.967 196.988C17.1519 196.775 17.2887 196.573 17.3772 196.383C17.4683 196.193 17.5139 195.986 17.5139 195.762C17.5139 195.486 17.4345 195.277 17.2756 195.137C17.1168 194.993 16.9071 194.922 16.6467 194.922C16.3993 194.922 16.1702 194.971 15.9592 195.07C15.7509 195.167 15.5347 195.305 15.3108 195.484L14.8069 194.879C14.9657 194.743 15.135 194.62 15.3147 194.508C15.497 194.396 15.7001 194.307 15.9241 194.242C16.148 194.174 16.4032 194.141 16.6897 194.141C17.0517 194.141 17.3642 194.206 17.6272 194.336C17.8902 194.464 18.092 194.642 18.2327 194.871C18.3759 195.1 18.4475 195.367 18.4475 195.672C18.4475 195.979 18.3863 196.263 18.2639 196.523C18.1415 196.784 17.967 197.042 17.7405 197.297C17.5139 197.549 17.2444 197.824 16.9319 198.121L15.9436 199.086V199.129H18.6467V199.934Z" fill="#898989"/>
<path d="M5.34985 222.18V221.402H7.36548V222.18H5.34985ZM11.8733 221.078C11.8733 221.539 11.8368 221.952 11.7639 222.316C11.6936 222.678 11.5816 222.986 11.428 223.238C11.2743 223.491 11.0738 223.684 10.8264 223.816C10.579 223.949 10.2795 224.016 9.92798 224.016C9.48787 224.016 9.12459 223.9 8.83813 223.668C8.55168 223.434 8.33944 223.098 8.20142 222.66C8.0634 222.22 7.99438 221.693 7.99438 221.078C7.99438 220.464 8.05688 219.938 8.18188 219.5C8.30949 219.06 8.51522 218.723 8.79907 218.488C9.08293 218.254 9.45923 218.137 9.92798 218.137C10.3707 218.137 10.7353 218.254 11.0217 218.488C11.3108 218.72 11.5243 219.056 11.6624 219.496C11.803 219.934 11.8733 220.461 11.8733 221.078ZM8.92017 221.078C8.92017 221.56 8.95142 221.962 9.01392 222.285C9.07902 222.608 9.18579 222.85 9.33423 223.012C9.48267 223.171 9.68058 223.25 9.92798 223.25C10.1754 223.25 10.3733 223.171 10.5217 223.012C10.6702 222.853 10.7769 222.612 10.842 222.289C10.9097 221.966 10.9436 221.562 10.9436 221.078C10.9436 220.599 10.9111 220.198 10.8459 219.875C10.7808 219.552 10.6741 219.31 10.5256 219.148C10.3772 218.984 10.178 218.902 9.92798 218.902C9.67798 218.902 9.47876 218.984 9.33032 219.148C9.18449 219.31 9.07902 219.552 9.01392 219.875C8.95142 220.198 8.92017 220.599 8.92017 221.078ZM12.7483 223.453C12.7483 223.24 12.803 223.09 12.9124 223.004C13.0243 222.915 13.1597 222.871 13.3186 222.871C13.4775 222.871 13.6129 222.915 13.7249 223.004C13.8394 223.09 13.8967 223.24 13.8967 223.453C13.8967 223.661 13.8394 223.812 13.7249 223.906C13.6129 223.997 13.4775 224.043 13.3186 224.043C13.1597 224.043 13.0243 223.997 12.9124 223.906C12.803 223.812 12.7483 223.661 12.7483 223.453ZM18.428 219.531C18.428 219.789 18.3759 220.013 18.2717 220.203C18.1676 220.393 18.0243 220.549 17.842 220.672C17.6624 220.792 17.454 220.878 17.217 220.93V220.957C17.6728 221.014 18.0165 221.158 18.2483 221.387C18.4827 221.616 18.5999 221.919 18.5999 222.297C18.5999 222.628 18.5204 222.923 18.3616 223.184C18.2027 223.441 17.9592 223.645 17.6311 223.793C17.303 223.941 16.8811 224.016 16.3655 224.016C16.0556 224.016 15.7678 223.991 15.5022 223.941C15.2392 223.892 14.9892 223.812 14.7522 223.703V222.887C14.9944 223.007 15.2522 223.099 15.5256 223.164C15.7991 223.229 16.0582 223.262 16.303 223.262C16.7795 223.262 17.1194 223.173 17.3225 222.996C17.5256 222.816 17.6272 222.569 17.6272 222.254C17.6272 222.051 17.5738 221.884 17.467 221.754C17.3629 221.624 17.2001 221.526 16.9788 221.461C16.76 221.396 16.4775 221.363 16.1311 221.363H15.6272V220.625H16.135C16.4657 220.625 16.7314 220.586 16.9319 220.508C17.1324 220.427 17.2769 220.316 17.3655 220.176C17.4566 220.035 17.5022 219.871 17.5022 219.684C17.5022 219.439 17.4228 219.249 17.2639 219.113C17.1051 218.975 16.8694 218.906 16.5569 218.906C16.3642 218.906 16.1884 218.928 16.0295 218.973C15.8733 219.017 15.7288 219.073 15.5959 219.141C15.4631 219.208 15.3368 219.281 15.217 219.359L14.7756 218.723C14.9918 218.561 15.2496 218.424 15.5491 218.312C15.8486 218.201 16.1975 218.145 16.5959 218.145C17.1819 218.145 17.6337 218.271 17.9514 218.523C18.2691 218.773 18.428 219.109 18.428 219.531Z" fill="#898989"/>
<path d="M5.34985 246.921V246.144H7.36548V246.921H5.34985ZM11.8733 245.819C11.8733 246.28 11.8368 246.693 11.7639 247.058C11.6936 247.42 11.5816 247.727 11.428 247.979C11.2743 248.232 11.0738 248.425 10.8264 248.558C10.579 248.69 10.2795 248.757 9.92798 248.757C9.48787 248.757 9.12459 248.641 8.83813 248.409C8.55168 248.175 8.33944 247.839 8.20142 247.401C8.0634 246.961 7.99438 246.434 7.99438 245.819C7.99438 245.205 8.05688 244.679 8.18188 244.241C8.30949 243.801 8.51522 243.464 8.79907 243.229C9.08293 242.995 9.45923 242.878 9.92798 242.878C10.3707 242.878 10.7353 242.995 11.0217 243.229C11.3108 243.461 11.5243 243.797 11.6624 244.237C11.803 244.675 11.8733 245.202 11.8733 245.819ZM8.92017 245.819C8.92017 246.301 8.95142 246.703 9.01392 247.026C9.07902 247.349 9.18579 247.591 9.33423 247.753C9.48267 247.912 9.68058 247.991 9.92798 247.991C10.1754 247.991 10.3733 247.912 10.5217 247.753C10.6702 247.594 10.7769 247.353 10.842 247.03C10.9097 246.707 10.9436 246.304 10.9436 245.819C10.9436 245.34 10.9111 244.939 10.8459 244.616C10.7808 244.293 10.6741 244.051 10.5256 243.89C10.3772 243.726 10.178 243.644 9.92798 243.644C9.67798 243.644 9.47876 243.726 9.33032 243.89C9.18449 244.051 9.07902 244.293 9.01392 244.616C8.95142 244.939 8.92017 245.34 8.92017 245.819ZM12.7483 248.194C12.7483 247.981 12.803 247.831 12.9124 247.745C13.0243 247.657 13.1597 247.612 13.3186 247.612C13.4775 247.612 13.6129 247.657 13.7249 247.745C13.8394 247.831 13.8967 247.981 13.8967 248.194C13.8967 248.403 13.8394 248.554 13.7249 248.647C13.6129 248.739 13.4775 248.784 13.3186 248.784C13.1597 248.784 13.0243 248.739 12.9124 248.647C12.803 248.554 12.7483 248.403 12.7483 248.194ZM18.8538 247.425H18.0803V248.679H17.1741V247.425H14.5764V246.729L17.1858 242.952H18.0803V246.663H18.8538V247.425ZM17.1741 246.663V245.245C17.1741 245.128 17.1754 245.009 17.178 244.89C17.1832 244.767 17.1884 244.65 17.1936 244.538C17.1988 244.426 17.204 244.323 17.2092 244.229C17.2144 244.133 17.2183 244.054 17.2209 243.991H17.1897C17.1402 244.095 17.0855 244.202 17.0256 244.312C16.9657 244.418 16.9019 244.522 16.8342 244.624L15.428 246.663H17.1741Z" fill="#898989"/>
<path d="M5.34985 271.38V270.603H7.36548V271.38H5.34985ZM11.8733 270.278C11.8733 270.739 11.8368 271.152 11.7639 271.517C11.6936 271.879 11.5816 272.186 11.428 272.438C11.2743 272.691 11.0738 272.884 10.8264 273.017C10.579 273.149 10.2795 273.216 9.92798 273.216C9.48787 273.216 9.12459 273.1 8.83813 272.868C8.55168 272.634 8.33944 272.298 8.20142 271.86C8.0634 271.42 7.99438 270.893 7.99438 270.278C7.99438 269.664 8.05688 269.138 8.18188 268.7C8.30949 268.26 8.51522 267.923 8.79907 267.688C9.08293 267.454 9.45923 267.337 9.92798 267.337C10.3707 267.337 10.7353 267.454 11.0217 267.688C11.3108 267.92 11.5243 268.256 11.6624 268.696C11.803 269.134 11.8733 269.661 11.8733 270.278ZM8.92017 270.278C8.92017 270.76 8.95142 271.162 9.01392 271.485C9.07902 271.808 9.18579 272.05 9.33423 272.212C9.48267 272.371 9.68058 272.45 9.92798 272.45C10.1754 272.45 10.3733 272.371 10.5217 272.212C10.6702 272.053 10.7769 271.812 10.842 271.489C10.9097 271.166 10.9436 270.763 10.9436 270.278C10.9436 269.799 10.9111 269.398 10.8459 269.075C10.7808 268.752 10.6741 268.51 10.5256 268.349C10.3772 268.185 10.178 268.103 9.92798 268.103C9.67798 268.103 9.47876 268.185 9.33032 268.349C9.18449 268.51 9.07902 268.752 9.01392 269.075C8.95142 269.398 8.92017 269.799 8.92017 270.278ZM12.7483 272.653C12.7483 272.44 12.803 272.29 12.9124 272.204C13.0243 272.116 13.1597 272.071 13.3186 272.071C13.4775 272.071 13.6129 272.116 13.7249 272.204C13.8394 272.29 13.8967 272.44 13.8967 272.653C13.8967 272.862 13.8394 273.013 13.7249 273.106C13.6129 273.198 13.4775 273.243 13.3186 273.243C13.1597 273.243 13.0243 273.198 12.9124 273.106C12.803 273.013 12.7483 272.862 12.7483 272.653ZM16.7209 269.567C17.0881 269.567 17.4111 269.634 17.6897 269.767C17.9709 269.897 18.1897 270.09 18.3459 270.345C18.5022 270.597 18.5803 270.907 18.5803 271.274C18.5803 271.675 18.4957 272.022 18.3264 272.313C18.1571 272.603 17.9084 272.825 17.5803 272.981C17.2522 273.138 16.8525 273.216 16.3811 273.216C16.0816 273.216 15.8017 273.19 15.5413 273.138C15.2834 273.086 15.0608 273.007 14.8733 272.903V272.075C15.0686 272.185 15.303 272.274 15.5764 272.345C15.8499 272.412 16.1116 272.446 16.3616 272.446C16.6272 272.446 16.8551 272.407 17.0452 272.329C17.2353 272.251 17.3811 272.131 17.4827 271.97C17.5868 271.808 17.6389 271.604 17.6389 271.356C17.6389 271.028 17.5334 270.776 17.3225 270.599C17.1142 270.419 16.7874 270.329 16.342 270.329C16.1858 270.329 16.0191 270.343 15.842 270.372C15.6676 270.398 15.5217 270.427 15.4045 270.458L15.0022 270.22L15.217 267.427H18.1858V268.235H16.0256L15.9006 269.657C15.9944 269.636 16.1064 269.617 16.2366 269.599C16.3668 269.578 16.5282 269.567 16.7209 269.567Z" fill="#898989"/>
<path d="M11.8733 147.442C11.8733 147.903 11.8368 148.316 11.7639 148.681C11.6936 149.043 11.5816 149.35 11.428 149.603C11.2743 149.855 11.0738 150.048 10.8264 150.181C10.579 150.313 10.2795 150.38 9.92798 150.38C9.48787 150.38 9.12459 150.264 8.83813 150.032C8.55168 149.798 8.33944 149.462 8.20142 149.024C8.0634 148.584 7.99438 148.057 7.99438 147.442C7.99438 146.828 8.05688 146.302 8.18188 145.864C8.30949 145.424 8.51522 145.087 8.79907 144.853C9.08293 144.618 9.45923 144.501 9.92798 144.501C10.3707 144.501 10.7353 144.618 11.0217 144.853C11.3108 145.084 11.5243 145.42 11.6624 145.86C11.803 146.298 11.8733 146.825 11.8733 147.442ZM8.92017 147.442C8.92017 147.924 8.95142 148.326 9.01392 148.649C9.07902 148.972 9.18579 149.215 9.33423 149.376C9.48267 149.535 9.68058 149.614 9.92798 149.614C10.1754 149.614 10.3733 149.535 10.5217 149.376C10.6702 149.217 10.7769 148.976 10.842 148.653C10.9097 148.33 10.9436 147.927 10.9436 147.442C10.9436 146.963 10.9111 146.562 10.8459 146.239C10.7808 145.916 10.6741 145.674 10.5256 145.513C10.3772 145.349 10.178 145.267 9.92798 145.267C9.67798 145.267 9.47876 145.349 9.33032 145.513C9.18449 145.674 9.07902 145.916 9.01392 146.239C8.95142 146.562 8.92017 146.963 8.92017 147.442ZM12.7483 149.817C12.7483 149.604 12.803 149.454 12.9124 149.368C13.0243 149.28 13.1597 149.235 13.3186 149.235C13.4775 149.235 13.6129 149.28 13.7249 149.368C13.8394 149.454 13.8967 149.604 13.8967 149.817C13.8967 150.026 13.8394 150.177 13.7249 150.271C13.6129 150.362 13.4775 150.407 13.3186 150.407C13.1597 150.407 13.0243 150.362 12.9124 150.271C12.803 150.177 12.7483 150.026 12.7483 149.817ZM18.6467 147.442C18.6467 147.903 18.6103 148.316 18.5374 148.681C18.467 149.043 18.3551 149.35 18.2014 149.603C18.0478 149.855 17.8472 150.048 17.5999 150.181C17.3525 150.313 17.053 150.38 16.7014 150.38C16.2613 150.38 15.898 150.264 15.6116 150.032C15.3251 149.798 15.1129 149.462 14.9749 149.024C14.8368 148.584 14.7678 148.057 14.7678 147.442C14.7678 146.828 14.8303 146.302 14.9553 145.864C15.0829 145.424 15.2887 145.087 15.5725 144.853C15.8564 144.618 16.2327 144.501 16.7014 144.501C17.1441 144.501 17.5087 144.618 17.7952 144.853C18.0842 145.084 18.2978 145.42 18.4358 145.86C18.5764 146.298 18.6467 146.825 18.6467 147.442ZM15.6936 147.442C15.6936 147.924 15.7249 148.326 15.7874 148.649C15.8525 148.972 15.9592 149.215 16.1077 149.376C16.2561 149.535 16.454 149.614 16.7014 149.614C16.9488 149.614 17.1467 149.535 17.2952 149.376C17.4436 149.217 17.5504 148.976 17.6155 148.653C17.6832 148.33 17.717 147.927 17.717 147.442C17.717 146.963 17.6845 146.562 17.6194 146.239C17.5543 145.916 17.4475 145.674 17.2991 145.513C17.1506 145.349 16.9514 145.267 16.7014 145.267C16.4514 145.267 16.2522 145.349 16.1038 145.513C15.9579 145.674 15.8525 145.916 15.7874 146.239C15.7249 146.562 15.6936 146.963 15.6936 147.442Z" fill="#898989"/>
<path d="M11.8733 124.4C11.8733 124.861 11.8368 125.274 11.7639 125.639C11.6936 126.001 11.5816 126.308 11.428 126.561C11.2743 126.813 11.0738 127.006 10.8264 127.139C10.579 127.271 10.2795 127.338 9.92798 127.338C9.48787 127.338 9.12459 127.222 8.83813 126.99C8.55168 126.756 8.33944 126.42 8.20142 125.982C8.0634 125.542 7.99438 125.015 7.99438 124.4C7.99438 123.786 8.05688 123.26 8.18188 122.822C8.30949 122.382 8.51522 122.045 8.79907 121.811C9.08293 121.576 9.45923 121.459 9.92798 121.459C10.3707 121.459 10.7353 121.576 11.0217 121.811C11.3108 122.042 11.5243 122.378 11.6624 122.818C11.803 123.256 11.8733 123.783 11.8733 124.4ZM8.92017 124.4C8.92017 124.882 8.95142 125.285 9.01392 125.607C9.07902 125.93 9.18579 126.173 9.33423 126.334C9.48267 126.493 9.68058 126.572 9.92798 126.572C10.1754 126.572 10.3733 126.493 10.5217 126.334C10.6702 126.175 10.7769 125.934 10.842 125.611C10.9097 125.288 10.9436 124.885 10.9436 124.4C10.9436 123.921 10.9111 123.52 10.8459 123.197C10.7808 122.874 10.6741 122.632 10.5256 122.471C10.3772 122.307 10.178 122.225 9.92798 122.225C9.67798 122.225 9.47876 122.307 9.33032 122.471C9.18449 122.632 9.07902 122.874 9.01392 123.197C8.95142 123.52 8.92017 123.921 8.92017 124.4ZM12.7483 126.775C12.7483 126.562 12.803 126.412 12.9124 126.326C13.0243 126.238 13.1597 126.193 13.3186 126.193C13.4775 126.193 13.6129 126.238 13.7249 126.326C13.8394 126.412 13.8967 126.562 13.8967 126.775C13.8967 126.984 13.8394 127.135 13.7249 127.229C13.6129 127.32 13.4775 127.365 13.3186 127.365C13.1597 127.365 13.0243 127.32 12.9124 127.229C12.803 127.135 12.7483 126.984 12.7483 126.775ZM17.4788 127.26H16.5569V123.584C16.5569 123.462 16.5582 123.339 16.5608 123.217C16.5634 123.094 16.566 122.975 16.5686 122.857C16.5738 122.74 16.5803 122.628 16.5881 122.521C16.5334 122.581 16.4657 122.646 16.385 122.717C16.3069 122.787 16.2236 122.86 16.135 122.936L15.4788 123.459L15.0178 122.877L16.7131 121.549H17.4788V127.26Z" fill="#898989"/>
<path d="M11.8733 99.585C11.8733 100.046 11.8368 100.459 11.7639 100.823C11.6936 101.185 11.5816 101.493 11.428 101.745C11.2743 101.998 11.0738 102.19 10.8264 102.323C10.579 102.456 10.2795 102.522 9.92798 102.522C9.48787 102.522 9.12459 102.407 8.83813 102.175C8.55168 101.94 8.33944 101.604 8.20142 101.167C8.0634 100.727 7.99438 100.2 7.99438 99.585C7.99438 98.9704 8.05688 98.4443 8.18188 98.0068C8.30949 97.5667 8.51522 97.2295 8.79907 96.9951C9.08293 96.7607 9.45923 96.6436 9.92798 96.6436C10.3707 96.6436 10.7353 96.7607 11.0217 96.9951C11.3108 97.2269 11.5243 97.5628 11.6624 98.0029C11.803 98.4404 11.8733 98.9678 11.8733 99.585ZM8.92017 99.585C8.92017 100.067 8.95142 100.469 9.01392 100.792C9.07902 101.115 9.18579 101.357 9.33423 101.519C9.48267 101.677 9.68058 101.757 9.92798 101.757C10.1754 101.757 10.3733 101.677 10.5217 101.519C10.6702 101.36 10.7769 101.119 10.842 100.796C10.9097 100.473 10.9436 100.069 10.9436 99.585C10.9436 99.1058 10.9111 98.7048 10.8459 98.3818C10.7808 98.0589 10.6741 97.8167 10.5256 97.6553C10.3772 97.4912 10.178 97.4092 9.92798 97.4092C9.67798 97.4092 9.47876 97.4912 9.33032 97.6553C9.18449 97.8167 9.07902 98.0589 9.01392 98.3818C8.95142 98.7048 8.92017 99.1058 8.92017 99.585ZM12.7483 101.96C12.7483 101.746 12.803 101.597 12.9124 101.511C13.0243 101.422 13.1597 101.378 13.3186 101.378C13.4775 101.378 13.6129 101.422 13.7249 101.511C13.8394 101.597 13.8967 101.746 13.8967 101.96C13.8967 102.168 13.8394 102.319 13.7249 102.413C13.6129 102.504 13.4775 102.55 13.3186 102.55C13.1597 102.55 13.0243 102.504 12.9124 102.413C12.803 102.319 12.7483 102.168 12.7483 101.96ZM18.6467 102.444H14.7795V101.753L16.26 100.253C16.5465 99.9613 16.7821 99.71 16.967 99.499C17.1519 99.2855 17.2887 99.0837 17.3772 98.8936C17.4683 98.7035 17.5139 98.4964 17.5139 98.2725C17.5139 97.9964 17.4345 97.7881 17.2756 97.6475C17.1168 97.5042 16.9071 97.4326 16.6467 97.4326C16.3993 97.4326 16.1702 97.4821 15.9592 97.5811C15.7509 97.6774 15.5347 97.8154 15.3108 97.9951L14.8069 97.3896C14.9657 97.2542 15.135 97.1305 15.3147 97.0186C15.497 96.9066 15.7001 96.818 15.9241 96.7529C16.148 96.6852 16.4032 96.6514 16.6897 96.6514C17.0517 96.6514 17.3642 96.7165 17.6272 96.8467C17.8902 96.9743 18.092 97.1527 18.2327 97.3818C18.3759 97.611 18.4475 97.8779 18.4475 98.1826C18.4475 98.4899 18.3863 98.7738 18.2639 99.0342C18.1415 99.2946 17.967 99.5524 17.7405 99.8076C17.5139 100.06 17.2444 100.335 16.9319 100.632L15.9436 101.597V101.64H18.6467V102.444Z" fill="#898989"/>
<path d="M11.8733 73.8857C11.8733 74.3467 11.8368 74.7594 11.7639 75.124C11.6936 75.486 11.5816 75.7933 11.428 76.0459C11.2743 76.2985 11.0738 76.4912 10.8264 76.624C10.579 76.7568 10.2795 76.8232 9.92798 76.8232C9.48787 76.8232 9.12459 76.7074 8.83813 76.4756C8.55168 76.2412 8.33944 75.9053 8.20142 75.4678C8.0634 75.0277 7.99438 74.5003 7.99438 73.8857C7.99438 73.2712 8.05688 72.7451 8.18188 72.3076C8.30949 71.8675 8.51522 71.5303 8.79907 71.2959C9.08293 71.0615 9.45923 70.9443 9.92798 70.9443C10.3707 70.9443 10.7353 71.0615 11.0217 71.2959C11.3108 71.5277 11.5243 71.8636 11.6624 72.3037C11.803 72.7412 11.8733 73.2686 11.8733 73.8857ZM8.92017 73.8857C8.92017 74.3675 8.95142 74.7699 9.01392 75.0928C9.07902 75.4157 9.18579 75.6579 9.33423 75.8193C9.48267 75.9782 9.68058 76.0576 9.92798 76.0576C10.1754 76.0576 10.3733 75.9782 10.5217 75.8193C10.6702 75.6605 10.7769 75.4196 10.842 75.0967C10.9097 74.7738 10.9436 74.3701 10.9436 73.8857C10.9436 73.4066 10.9111 73.0055 10.8459 72.6826C10.7808 72.3597 10.6741 72.1175 10.5256 71.9561C10.3772 71.792 10.178 71.71 9.92798 71.71C9.67798 71.71 9.47876 71.792 9.33032 71.9561C9.18449 72.1175 9.07902 72.3597 9.01392 72.6826C8.95142 73.0055 8.92017 73.4066 8.92017 73.8857ZM12.7483 76.2607C12.7483 76.0472 12.803 75.8975 12.9124 75.8115C13.0243 75.723 13.1597 75.6787 13.3186 75.6787C13.4775 75.6787 13.6129 75.723 13.7249 75.8115C13.8394 75.8975 13.8967 76.0472 13.8967 76.2607C13.8967 76.4691 13.8394 76.6201 13.7249 76.7139C13.6129 76.805 13.4775 76.8506 13.3186 76.8506C13.1597 76.8506 13.0243 76.805 12.9124 76.7139C12.803 76.6201 12.7483 76.4691 12.7483 76.2607ZM18.428 72.3389C18.428 72.5967 18.3759 72.8206 18.2717 73.0107C18.1676 73.2008 18.0243 73.3571 17.842 73.4795C17.6624 73.5993 17.454 73.6852 17.217 73.7373V73.7646C17.6728 73.8219 18.0165 73.9652 18.2483 74.1943C18.4827 74.4235 18.5999 74.7269 18.5999 75.1045C18.5999 75.4352 18.5204 75.7308 18.3616 75.9912C18.2027 76.249 17.9592 76.4521 17.6311 76.6006C17.303 76.749 16.8811 76.8232 16.3655 76.8232C16.0556 76.8232 15.7678 76.7985 15.5022 76.749C15.2392 76.6995 14.9892 76.6201 14.7522 76.5107V75.6943C14.9944 75.8141 15.2522 75.9066 15.5256 75.9717C15.7991 76.0368 16.0582 76.0693 16.303 76.0693C16.7795 76.0693 17.1194 75.9808 17.3225 75.8037C17.5256 75.624 17.6272 75.3766 17.6272 75.0615C17.6272 74.8584 17.5738 74.6917 17.467 74.5615C17.3629 74.4313 17.2001 74.3337 16.9788 74.2686C16.76 74.2035 16.4775 74.1709 16.1311 74.1709H15.6272V73.4326H16.135C16.4657 73.4326 16.7314 73.3936 16.9319 73.3154C17.1324 73.2347 17.2769 73.124 17.3655 72.9834C17.4566 72.8428 17.5022 72.6787 17.5022 72.4912C17.5022 72.2464 17.4228 72.0563 17.2639 71.9209C17.1051 71.7829 16.8694 71.7139 16.5569 71.7139C16.3642 71.7139 16.1884 71.736 16.0295 71.7803C15.8733 71.8245 15.7288 71.8805 15.5959 71.9482C15.4631 72.016 15.3368 72.0889 15.217 72.167L14.7756 71.5303C14.9918 71.3688 15.2496 71.2321 15.5491 71.1201C15.8486 71.0081 16.1975 70.9521 16.5959 70.9521C17.1819 70.9521 17.6337 71.0785 17.9514 71.3311C18.2691 71.5811 18.428 71.917 18.428 72.3389Z" fill="#898989"/>
<path d="M11.8733 49.9561C11.8733 50.417 11.8368 50.8298 11.7639 51.1943C11.6936 51.5563 11.5816 51.8636 11.428 52.1162C11.2743 52.3688 11.0738 52.5615 10.8264 52.6943C10.579 52.8271 10.2795 52.8936 9.92798 52.8936C9.48787 52.8936 9.12459 52.7777 8.83813 52.5459C8.55168 52.3115 8.33944 51.9756 8.20142 51.5381C8.0634 51.098 7.99438 50.5706 7.99438 49.9561C7.99438 49.3415 8.05688 48.8154 8.18188 48.3779C8.30949 47.9378 8.51522 47.6006 8.79907 47.3662C9.08293 47.1318 9.45923 47.0146 9.92798 47.0146C10.3707 47.0146 10.7353 47.1318 11.0217 47.3662C11.3108 47.598 11.5243 47.9339 11.6624 48.374C11.803 48.8115 11.8733 49.3389 11.8733 49.9561ZM8.92017 49.9561C8.92017 50.4378 8.95142 50.8402 9.01392 51.1631C9.07902 51.486 9.18579 51.7282 9.33423 51.8896C9.48267 52.0485 9.68058 52.1279 9.92798 52.1279C10.1754 52.1279 10.3733 52.0485 10.5217 51.8896C10.6702 51.7308 10.7769 51.4899 10.842 51.167C10.9097 50.8441 10.9436 50.4404 10.9436 49.9561C10.9436 49.4769 10.9111 49.0758 10.8459 48.7529C10.7808 48.43 10.6741 48.1878 10.5256 48.0264C10.3772 47.8623 10.178 47.7803 9.92798 47.7803C9.67798 47.7803 9.47876 47.8623 9.33032 48.0264C9.18449 48.1878 9.07902 48.43 9.01392 48.7529C8.95142 49.0758 8.92017 49.4769 8.92017 49.9561ZM12.7483 52.3311C12.7483 52.1175 12.803 51.9678 12.9124 51.8818C13.0243 51.7933 13.1597 51.749 13.3186 51.749C13.4775 51.749 13.6129 51.7933 13.7249 51.8818C13.8394 51.9678 13.8967 52.1175 13.8967 52.3311C13.8967 52.5394 13.8394 52.6904 13.7249 52.7842C13.6129 52.8753 13.4775 52.9209 13.3186 52.9209C13.1597 52.9209 13.0243 52.8753 12.9124 52.7842C12.803 52.6904 12.7483 52.5394 12.7483 52.3311ZM18.8538 51.5615H18.0803V52.8154H17.1741V51.5615H14.5764V50.8662L17.1858 47.0889H18.0803V50.7998H18.8538V51.5615ZM17.1741 50.7998V49.3818C17.1741 49.2646 17.1754 49.1462 17.178 49.0264C17.1832 48.904 17.1884 48.7868 17.1936 48.6748C17.1988 48.5628 17.204 48.46 17.2092 48.3662C17.2144 48.2699 17.2183 48.1904 17.2209 48.1279H17.1897C17.1402 48.2321 17.0855 48.3389 17.0256 48.4482C16.9657 48.555 16.9019 48.6592 16.8342 48.7607L15.428 50.7998H17.1741Z" fill="#898989"/>
<path d="M11.8733 25.1406C11.8733 25.6016 11.8368 26.0143 11.7639 26.3789C11.6936 26.7409 11.5816 27.0482 11.428 27.3008C11.2743 27.5534 11.0738 27.7461 10.8264 27.8789C10.579 28.0117 10.2795 28.0781 9.92798 28.0781C9.48787 28.0781 9.12459 27.9622 8.83813 27.7305C8.55168 27.4961 8.33944 27.1602 8.20142 26.7227C8.0634 26.2826 7.99438 25.7552 7.99438 25.1406C7.99438 24.526 8.05688 24 8.18188 23.5625C8.30949 23.1224 8.51522 22.7852 8.79907 22.5508C9.08293 22.3164 9.45923 22.1992 9.92798 22.1992C10.3707 22.1992 10.7353 22.3164 11.0217 22.5508C11.3108 22.7826 11.5243 23.1185 11.6624 23.5586C11.803 23.9961 11.8733 24.5234 11.8733 25.1406ZM8.92017 25.1406C8.92017 25.6224 8.95142 26.0247 9.01392 26.3477C9.07902 26.6706 9.18579 26.9128 9.33423 27.0742C9.48267 27.2331 9.68058 27.3125 9.92798 27.3125C10.1754 27.3125 10.3733 27.2331 10.5217 27.0742C10.6702 26.9154 10.7769 26.6745 10.842 26.3516C10.9097 26.0286 10.9436 25.625 10.9436 25.1406C10.9436 24.6615 10.9111 24.2604 10.8459 23.9375C10.7808 23.6146 10.6741 23.3724 10.5256 23.2109C10.3772 23.0469 10.178 22.9648 9.92798 22.9648C9.67798 22.9648 9.47876 23.0469 9.33032 23.2109C9.18449 23.3724 9.07902 23.6146 9.01392 23.9375C8.95142 24.2604 8.92017 24.6615 8.92017 25.1406ZM12.7483 27.5156C12.7483 27.3021 12.803 27.1523 12.9124 27.0664C13.0243 26.9779 13.1597 26.9336 13.3186 26.9336C13.4775 26.9336 13.6129 26.9779 13.7249 27.0664C13.8394 27.1523 13.8967 27.3021 13.8967 27.5156C13.8967 27.724 13.8394 27.875 13.7249 27.9688C13.6129 28.0599 13.4775 28.1055 13.3186 28.1055C13.1597 28.1055 13.0243 28.0599 12.9124 27.9688C12.803 27.875 12.7483 27.724 12.7483 27.5156ZM16.7209 24.4297C17.0881 24.4297 17.4111 24.4961 17.6897 24.6289C17.9709 24.7591 18.1897 24.9518 18.3459 25.207C18.5022 25.4596 18.5803 25.7695 18.5803 26.1367C18.5803 26.5378 18.4957 26.8841 18.3264 27.1758C18.1571 27.4648 17.9084 27.6875 17.5803 27.8438C17.2522 28 16.8525 28.0781 16.3811 28.0781C16.0816 28.0781 15.8017 28.0521 15.5413 28C15.2834 27.9479 15.0608 27.8698 14.8733 27.7656V26.9375C15.0686 27.0469 15.303 27.1367 15.5764 27.207C15.8499 27.2747 16.1116 27.3086 16.3616 27.3086C16.6272 27.3086 16.8551 27.2695 17.0452 27.1914C17.2353 27.1133 17.3811 26.9935 17.4827 26.832C17.5868 26.6706 17.6389 26.4661 17.6389 26.2188C17.6389 25.8906 17.5334 25.638 17.3225 25.4609C17.1142 25.2812 16.7874 25.1914 16.342 25.1914C16.1858 25.1914 16.0191 25.2057 15.842 25.2344C15.6676 25.2604 15.5217 25.2891 15.4045 25.3203L15.0022 25.082L15.217 22.2891H18.1858V23.0977H16.0256L15.9006 24.5195C15.9944 24.4987 16.1064 24.4792 16.2366 24.4609C16.3668 24.4401 16.5282 24.4297 16.7209 24.4297Z" fill="#898989"/>
</svg>