<svg xmlns="http://www.w3.org/2000/svg" width="438" height="273" viewBox="0 0 438 273" fill="none">

<path d="M4.43359 248.746H3.66016V250H2.75391V248.746H0.15625V248.051L2.76562 244.273H3.66016V247.984H4.43359V248.746ZM2.75391 247.984V246.566C2.75391 246.449 2.75521 246.331 2.75781 246.211C2.76302 246.089 2.76823 245.971 2.77344 245.859C2.77865 245.747 2.78385 245.645 2.78906 245.551C2.79427 245.454 2.79818 245.375 2.80078 245.312H2.76953C2.72005 245.417 2.66536 245.523 2.60547 245.633C2.54557 245.74 2.48177 245.844 2.41406 245.945L1.00781 247.984H2.75391ZM8.80469 247.141C8.80469 247.602 8.76823 248.014 8.69531 248.379C8.625 248.741 8.51302 249.048 8.35938 249.301C8.20573 249.553 8.00521 249.746 7.75781 249.879C7.51042 250.012 7.21094 250.078 6.85938 250.078C6.41927 250.078 6.05599 249.962 5.76953 249.73C5.48307 249.496 5.27083 249.16 5.13281 248.723C4.99479 248.283 4.92578 247.755 4.92578 247.141C4.92578 246.526 4.98828 246 5.11328 245.562C5.24089 245.122 5.44661 244.785 5.73047 244.551C6.01432 244.316 6.39062 244.199 6.85938 244.199C7.30208 244.199 7.66667 244.316 7.95312 244.551C8.24219 244.783 8.45573 245.118 8.59375 245.559C8.73438 245.996 8.80469 246.523 8.80469 247.141ZM5.85156 247.141C5.85156 247.622 5.88281 248.025 5.94531 248.348C6.01042 248.671 6.11719 248.913 6.26562 249.074C6.41406 249.233 6.61198 249.312 6.85938 249.312C7.10677 249.312 7.30469 249.233 7.45312 249.074C7.60156 248.915 7.70833 248.674 7.77344 248.352C7.84115 248.029 7.875 247.625 7.875 247.141C7.875 246.661 7.84245 246.26 7.77734 245.938C7.71224 245.615 7.60547 245.372 7.45703 245.211C7.30859 245.047 7.10938 244.965 6.85938 244.965C6.60938 244.965 6.41016 245.047 6.26172 245.211C6.11589 245.372 6.01042 245.615 5.94531 245.938C5.88281 246.26 5.85156 246.661 5.85156 247.141Z" fill="#898989"/>
<path d="M0.367188 201.566C0.367188 201.23 0.390625 200.9 0.4375 200.574C0.486979 200.249 0.570312 199.944 0.6875 199.66C0.804688 199.376 0.966146 199.126 1.17188 198.91C1.38021 198.694 1.64193 198.525 1.95703 198.402C2.27214 198.277 2.65104 198.215 3.09375 198.215C3.20833 198.215 3.33724 198.22 3.48047 198.23C3.6237 198.241 3.74219 198.258 3.83594 198.281V199.043C3.73438 199.014 3.6224 198.992 3.5 198.977C3.38021 198.961 3.26042 198.953 3.14062 198.953C2.66146 198.953 2.28776 199.044 2.01953 199.227C1.7513 199.406 1.5599 199.654 1.44531 199.969C1.33073 200.281 1.26432 200.639 1.24609 201.043H1.29297C1.37109 200.913 1.46875 200.797 1.58594 200.695C1.70312 200.594 1.84635 200.513 2.01562 200.453C2.1849 200.391 2.38151 200.359 2.60547 200.359C2.9388 200.359 3.22917 200.43 3.47656 200.57C3.72396 200.708 3.91406 200.909 4.04688 201.172C4.18229 201.435 4.25 201.754 4.25 202.129C4.25 202.533 4.17318 202.88 4.01953 203.172C3.86849 203.464 3.65234 203.688 3.37109 203.844C3.09245 204 2.76042 204.078 2.375 204.078C2.09115 204.078 1.82682 204.026 1.58203 203.922C1.33984 203.818 1.1276 203.661 0.945312 203.453C0.763021 203.245 0.621094 202.984 0.519531 202.672C0.417969 202.357 0.367188 201.988 0.367188 201.566ZM2.35938 203.32C2.65625 203.32 2.89453 203.224 3.07422 203.031C3.25651 202.836 3.34766 202.538 3.34766 202.137C3.34766 201.811 3.26693 201.553 3.10547 201.363C2.94661 201.173 2.70703 201.078 2.38672 201.078C2.16797 201.078 1.97656 201.125 1.8125 201.219C1.64844 201.312 1.52083 201.431 1.42969 201.574C1.34115 201.717 1.29688 201.863 1.29688 202.012C1.29688 202.163 1.31901 202.315 1.36328 202.469C1.40755 202.622 1.47396 202.764 1.5625 202.895C1.65104 203.022 1.76172 203.125 1.89453 203.203C2.02734 203.281 2.18229 203.32 2.35938 203.32ZM8.80469 201.141C8.80469 201.602 8.76823 202.014 8.69531 202.379C8.625 202.741 8.51302 203.048 8.35938 203.301C8.20573 203.553 8.00521 203.746 7.75781 203.879C7.51042 204.012 7.21094 204.078 6.85938 204.078C6.41927 204.078 6.05599 203.962 5.76953 203.73C5.48307 203.496 5.27083 203.16 5.13281 202.723C4.99479 202.283 4.92578 201.755 4.92578 201.141C4.92578 200.526 4.98828 200 5.11328 199.562C5.24089 199.122 5.44661 198.785 5.73047 198.551C6.01432 198.316 6.39062 198.199 6.85938 198.199C7.30208 198.199 7.66667 198.316 7.95312 198.551C8.24219 198.783 8.45573 199.118 8.59375 199.559C8.73438 199.996 8.80469 200.523 8.80469 201.141ZM5.85156 201.141C5.85156 201.622 5.88281 202.025 5.94531 202.348C6.01042 202.671 6.11719 202.913 6.26562 203.074C6.41406 203.233 6.61198 203.312 6.85938 203.312C7.10677 203.312 7.30469 203.233 7.45312 203.074C7.60156 202.915 7.70833 202.674 7.77344 202.352C7.84115 202.029 7.875 201.625 7.875 201.141C7.875 200.661 7.84245 200.26 7.77734 199.938C7.71224 199.615 7.60547 199.372 7.45703 199.211C7.30859 199.047 7.10938 198.965 6.85938 198.965C6.60938 198.965 6.41016 199.047 6.26172 199.211C6.11589 199.372 6.01042 199.615 5.94531 199.938C5.88281 200.26 5.85156 200.661 5.85156 201.141Z" fill="#898989"/>
<path d="M2.28516 159.211C2.61589 159.211 2.91406 159.263 3.17969 159.367C3.44531 159.469 3.65625 159.621 3.8125 159.824C3.96875 160.027 4.04688 160.279 4.04688 160.578C4.04688 160.81 3.9987 161.012 3.90234 161.184C3.80859 161.355 3.68099 161.507 3.51953 161.637C3.35807 161.764 3.17708 161.878 2.97656 161.977C3.20052 162.086 3.40625 162.212 3.59375 162.355C3.78385 162.496 3.9362 162.661 4.05078 162.852C4.16797 163.042 4.22656 163.264 4.22656 163.52C4.22656 163.84 4.14453 164.117 3.98047 164.352C3.81901 164.583 3.59375 164.763 3.30469 164.891C3.01562 165.016 2.67839 165.078 2.29297 165.078C1.87891 165.078 1.52604 165.017 1.23438 164.895C0.942708 164.772 0.721354 164.598 0.570312 164.371C0.419271 164.142 0.34375 163.868 0.34375 163.551C0.34375 163.288 0.395833 163.06 0.5 162.867C0.604167 162.674 0.74349 162.508 0.917969 162.367C1.09505 162.227 1.28906 162.108 1.5 162.012C1.32031 161.905 1.15625 161.785 1.00781 161.652C0.859375 161.517 0.740885 161.362 0.652344 161.188C0.566406 161.01 0.523438 160.806 0.523438 160.574C0.523438 160.277 0.602865 160.029 0.761719 159.828C0.920573 159.625 1.13281 159.471 1.39844 159.367C1.66667 159.263 1.96224 159.211 2.28516 159.211ZM1.21875 163.516C1.21875 163.766 1.30729 163.971 1.48438 164.133C1.66146 164.294 1.92578 164.375 2.27734 164.375C2.6263 164.375 2.89193 164.296 3.07422 164.137C3.25651 163.978 3.34766 163.768 3.34766 163.508C3.34766 163.341 3.30078 163.194 3.20703 163.066C3.11589 162.939 2.99219 162.826 2.83594 162.727C2.68229 162.625 2.51172 162.531 2.32422 162.445L2.19922 162.395C1.99609 162.48 1.82161 162.578 1.67578 162.688C1.52995 162.794 1.41667 162.915 1.33594 163.051C1.25781 163.186 1.21875 163.341 1.21875 163.516ZM2.27734 159.918C2.02474 159.918 1.81641 159.98 1.65234 160.105C1.49089 160.228 1.41016 160.405 1.41016 160.637C1.41016 160.801 1.44922 160.941 1.52734 161.059C1.60807 161.176 1.71615 161.277 1.85156 161.363C1.98698 161.447 2.13672 161.525 2.30078 161.598C2.45964 161.527 2.60286 161.451 2.73047 161.367C2.86068 161.281 2.96354 161.18 3.03906 161.062C3.11719 160.943 3.15625 160.799 3.15625 160.633C3.15625 160.404 3.07422 160.228 2.91016 160.105C2.7487 159.98 2.53776 159.918 2.27734 159.918ZM8.80469 162.141C8.80469 162.602 8.76823 163.014 8.69531 163.379C8.625 163.741 8.51302 164.048 8.35938 164.301C8.20573 164.553 8.00521 164.746 7.75781 164.879C7.51042 165.012 7.21094 165.078 6.85938 165.078C6.41927 165.078 6.05599 164.962 5.76953 164.73C5.48307 164.496 5.27083 164.16 5.13281 163.723C4.99479 163.283 4.92578 162.755 4.92578 162.141C4.92578 161.526 4.98828 161 5.11328 160.562C5.24089 160.122 5.44661 159.785 5.73047 159.551C6.01432 159.316 6.39062 159.199 6.85938 159.199C7.30208 159.199 7.66667 159.316 7.95312 159.551C8.24219 159.783 8.45573 160.118 8.59375 160.559C8.73438 160.996 8.80469 161.523 8.80469 162.141ZM5.85156 162.141C5.85156 162.622 5.88281 163.025 5.94531 163.348C6.01042 163.671 6.11719 163.913 6.26562 164.074C6.41406 164.233 6.61198 164.312 6.85938 164.312C7.10677 164.312 7.30469 164.233 7.45312 164.074C7.60156 163.915 7.70833 163.674 7.77344 163.352C7.84115 163.029 7.875 162.625 7.875 162.141C7.875 161.661 7.84245 161.26 7.77734 160.938C7.71224 160.615 7.60547 160.372 7.45703 160.211C7.30859 160.047 7.10938 159.965 6.85938 159.965C6.60938 159.965 6.41016 160.047 6.26172 160.211C6.11589 160.372 6.01042 160.615 5.94531 160.938C5.88281 161.26 5.85156 161.661 5.85156 162.141Z" fill="#898989"/>
<path d="M3.05859 129H2.13672V125.324C2.13672 125.202 2.13802 125.079 2.14062 124.957C2.14323 124.835 2.14583 124.715 2.14844 124.598C2.15365 124.48 2.16016 124.368 2.16797 124.262C2.11328 124.322 2.04557 124.387 1.96484 124.457C1.88672 124.527 1.80339 124.6 1.71484 124.676L1.05859 125.199L0.597656 124.617L2.29297 123.289H3.05859V129ZM8.80469 126.141C8.80469 126.602 8.76823 127.014 8.69531 127.379C8.625 127.741 8.51302 128.048 8.35938 128.301C8.20573 128.553 8.00521 128.746 7.75781 128.879C7.51042 129.012 7.21094 129.078 6.85938 129.078C6.41927 129.078 6.05599 128.962 5.76953 128.73C5.48307 128.496 5.27083 128.16 5.13281 127.723C4.99479 127.283 4.92578 126.755 4.92578 126.141C4.92578 125.526 4.98828 125 5.11328 124.562C5.24089 124.122 5.44661 123.785 5.73047 123.551C6.01432 123.316 6.39062 123.199 6.85938 123.199C7.30208 123.199 7.66667 123.316 7.95312 123.551C8.24219 123.783 8.45573 124.118 8.59375 124.559C8.73438 124.996 8.80469 125.523 8.80469 126.141ZM5.85156 126.141C5.85156 126.622 5.88281 127.025 5.94531 127.348C6.01042 127.671 6.11719 127.913 6.26562 128.074C6.41406 128.233 6.61198 128.312 6.85938 128.312C7.10677 128.312 7.30469 128.233 7.45312 128.074C7.60156 127.915 7.70833 127.674 7.77344 127.352C7.84115 127.029 7.875 126.625 7.875 126.141C7.875 125.661 7.84245 125.26 7.77734 124.938C7.71224 124.615 7.60547 124.372 7.45703 124.211C7.30859 124.047 7.10938 123.965 6.85938 123.965C6.60938 123.965 6.41016 124.047 6.26172 124.211C6.11589 124.372 6.01042 124.615 5.94531 124.938C5.88281 125.26 5.85156 125.661 5.85156 126.141ZM13.3828 126.141C13.3828 126.602 13.3464 127.014 13.2734 127.379C13.2031 127.741 13.0911 128.048 12.9375 128.301C12.7839 128.553 12.5833 128.746 12.3359 128.879C12.0885 129.012 11.7891 129.078 11.4375 129.078C10.9974 129.078 10.6341 128.962 10.3477 128.73C10.0612 128.496 9.84896 128.16 9.71094 127.723C9.57292 127.283 9.50391 126.755 9.50391 126.141C9.50391 125.526 9.56641 125 9.69141 124.562C9.81901 124.122 10.0247 123.785 10.3086 123.551C10.5924 123.316 10.9688 123.199 11.4375 123.199C11.8802 123.199 12.2448 123.316 12.5312 123.551C12.8203 123.783 13.0339 124.118 13.1719 124.559C13.3125 124.996 13.3828 125.523 13.3828 126.141ZM10.4297 126.141C10.4297 126.622 10.4609 127.025 10.5234 127.348C10.5885 127.671 10.6953 127.913 10.8438 128.074C10.9922 128.233 11.1901 128.312 11.4375 128.312C11.6849 128.312 11.8828 128.233 12.0312 128.074C12.1797 127.915 12.2865 127.674 12.3516 127.352C12.4193 127.029 12.4531 126.625 12.4531 126.141C12.4531 125.661 12.4206 125.26 12.3555 124.938C12.2904 124.615 12.1836 124.372 12.0352 124.211C11.8867 124.047 11.6875 123.965 11.4375 123.965C11.1875 123.965 10.9883 124.047 10.8398 124.211C10.694 124.372 10.5885 124.615 10.5234 124.938C10.4609 125.26 10.4297 125.661 10.4297 126.141Z" fill="#898989"/>
<path d="M3.05859 83H2.13672V79.3242C2.13672 79.2018 2.13802 79.0794 2.14062 78.957C2.14323 78.8346 2.14583 78.7148 2.14844 78.5977C2.15365 78.4805 2.16016 78.3685 2.16797 78.2617C2.11328 78.3216 2.04557 78.3867 1.96484 78.457C1.88672 78.5273 1.80339 78.6003 1.71484 78.6758L1.05859 79.1992L0.597656 78.6172L2.29297 77.2891H3.05859V83ZM8.80469 83H4.9375V82.3086L6.41797 80.8086C6.70443 80.5169 6.9401 80.2656 7.125 80.0547C7.3099 79.8411 7.44661 79.6393 7.53516 79.4492C7.6263 79.2591 7.67188 79.0521 7.67188 78.8281C7.67188 78.5521 7.59245 78.3438 7.43359 78.2031C7.27474 78.0599 7.0651 77.9883 6.80469 77.9883C6.55729 77.9883 6.32812 78.0378 6.11719 78.1367C5.90885 78.2331 5.69271 78.3711 5.46875 78.5508L4.96484 77.9453C5.1237 77.8099 5.29297 77.6862 5.47266 77.5742C5.65495 77.4622 5.85807 77.3737 6.08203 77.3086C6.30599 77.2409 6.5612 77.207 6.84766 77.207C7.20964 77.207 7.52214 77.2721 7.78516 77.4023C8.04818 77.5299 8.25 77.7083 8.39062 77.9375C8.53385 78.1667 8.60547 78.4336 8.60547 78.7383C8.60547 79.0456 8.54427 79.3294 8.42188 79.5898C8.29948 79.8503 8.125 80.1081 7.89844 80.3633C7.67188 80.6159 7.40234 80.8906 7.08984 81.1875L6.10156 82.1523V82.1953H8.80469V83ZM13.3828 80.1406C13.3828 80.6016 13.3464 81.0143 13.2734 81.3789C13.2031 81.7409 13.0911 82.0482 12.9375 82.3008C12.7839 82.5534 12.5833 82.7461 12.3359 82.8789C12.0885 83.0117 11.7891 83.0781 11.4375 83.0781C10.9974 83.0781 10.6341 82.9622 10.3477 82.7305C10.0612 82.4961 9.84896 82.1602 9.71094 81.7227C9.57292 81.2826 9.50391 80.7552 9.50391 80.1406C9.50391 79.526 9.56641 79 9.69141 78.5625C9.81901 78.1224 10.0247 77.7852 10.3086 77.5508C10.5924 77.3164 10.9688 77.1992 11.4375 77.1992C11.8802 77.1992 12.2448 77.3164 12.5312 77.5508C12.8203 77.7826 13.0339 78.1185 13.1719 78.5586C13.3125 78.9961 13.3828 79.5234 13.3828 80.1406ZM10.4297 80.1406C10.4297 80.6224 10.4609 81.0247 10.5234 81.3477C10.5885 81.6706 10.6953 81.9128 10.8438 82.0742C10.9922 82.2331 11.1901 82.3125 11.4375 82.3125C11.6849 82.3125 11.8828 82.2331 12.0312 82.0742C12.1797 81.9154 12.2865 81.6745 12.3516 81.3516C12.4193 81.0286 12.4531 80.625 12.4531 80.1406C12.4531 79.6615 12.4206 79.2604 12.3555 78.9375C12.2904 78.6146 12.1836 78.3724 12.0352 78.2109C11.8867 78.0469 11.6875 77.9648 11.4375 77.9648C11.1875 77.9648 10.9883 78.0469 10.8398 78.2109C10.694 78.3724 10.5885 78.6146 10.5234 78.9375C10.4609 79.2604 10.4297 79.6615 10.4297 80.1406Z" fill="#898989"/>
<path d="M3.05859 44H2.13672V40.3242C2.13672 40.2018 2.13802 40.0794 2.14062 39.957C2.14323 39.8346 2.14583 39.7148 2.14844 39.5977C2.15365 39.4805 2.16016 39.3685 2.16797 39.2617C2.11328 39.3216 2.04557 39.3867 1.96484 39.457C1.88672 39.5273 1.80339 39.6003 1.71484 39.6758L1.05859 40.1992L0.597656 39.6172L2.29297 38.2891H3.05859V44ZM9.01172 42.7461H8.23828V44H7.33203V42.7461H4.73438V42.0508L7.34375 38.2734H8.23828V41.9844H9.01172V42.7461ZM7.33203 41.9844V40.5664C7.33203 40.4492 7.33333 40.3307 7.33594 40.2109C7.34115 40.0885 7.34635 39.9714 7.35156 39.8594C7.35677 39.7474 7.36198 39.6445 7.36719 39.5508C7.3724 39.4544 7.3763 39.375 7.37891 39.3125H7.34766C7.29818 39.4167 7.24349 39.5234 7.18359 39.6328C7.1237 39.7396 7.0599 39.8438 6.99219 39.9453L5.58594 41.9844H7.33203ZM13.3828 41.1406C13.3828 41.6016 13.3464 42.0143 13.2734 42.3789C13.2031 42.7409 13.0911 43.0482 12.9375 43.3008C12.7839 43.5534 12.5833 43.7461 12.3359 43.8789C12.0885 44.0117 11.7891 44.0781 11.4375 44.0781C10.9974 44.0781 10.6341 43.9622 10.3477 43.7305C10.0612 43.4961 9.84896 43.1602 9.71094 42.7227C9.57292 42.2826 9.50391 41.7552 9.50391 41.1406C9.50391 40.526 9.56641 40 9.69141 39.5625C9.81901 39.1224 10.0247 38.7852 10.3086 38.5508C10.5924 38.3164 10.9688 38.1992 11.4375 38.1992C11.8802 38.1992 12.2448 38.3164 12.5312 38.5508C12.8203 38.7826 13.0339 39.1185 13.1719 39.5586C13.3125 39.9961 13.3828 40.5234 13.3828 41.1406ZM10.4297 41.1406C10.4297 41.6224 10.4609 42.0247 10.5234 42.3477C10.5885 42.6706 10.6953 42.9128 10.8438 43.0742C10.9922 43.2331 11.1901 43.3125 11.4375 43.3125C11.6849 43.3125 11.8828 43.2331 12.0312 43.0742C12.1797 42.9154 12.2865 42.6745 12.3516 42.3516C12.4193 42.0286 12.4531 41.625 12.4531 41.1406C12.4531 40.6615 12.4206 40.2604 12.3555 39.9375C12.2904 39.6146 12.1836 39.3724 12.0352 39.2109C11.8867 39.0469 11.6875 38.9648 11.4375 38.9648C11.1875 38.9648 10.9883 39.0469 10.8398 39.2109C10.694 39.3724 10.5885 39.6146 10.5234 39.9375C10.4609 40.2604 10.4297 40.6615 10.4297 41.1406Z" fill="#898989"/>
<path d="M3.05859 8H2.13672V4.32422C2.13672 4.20182 2.13802 4.07943 2.14062 3.95703C2.14323 3.83464 2.14583 3.71484 2.14844 3.59766C2.15365 3.48047 2.16016 3.36849 2.16797 3.26172C2.11328 3.32161 2.04557 3.38672 1.96484 3.45703C1.88672 3.52734 1.80339 3.60026 1.71484 3.67578L1.05859 4.19922L0.597656 3.61719L2.29297 2.28906H3.05859V8ZM4.94531 5.56641C4.94531 5.23047 4.96875 4.89974 5.01562 4.57422C5.0651 4.2487 5.14844 3.94401 5.26562 3.66016C5.38281 3.3763 5.54427 3.1263 5.75 2.91016C5.95833 2.69401 6.22005 2.52474 6.53516 2.40234C6.85026 2.27734 7.22917 2.21484 7.67188 2.21484C7.78646 2.21484 7.91536 2.22005 8.05859 2.23047C8.20182 2.24089 8.32031 2.25781 8.41406 2.28125V3.04297C8.3125 3.01432 8.20052 2.99219 8.07812 2.97656C7.95833 2.96094 7.83854 2.95312 7.71875 2.95312C7.23958 2.95312 6.86589 3.04427 6.59766 3.22656C6.32943 3.40625 6.13802 3.65365 6.02344 3.96875C5.90885 4.28125 5.84245 4.63932 5.82422 5.04297H5.87109C5.94922 4.91276 6.04688 4.79688 6.16406 4.69531C6.28125 4.59375 6.42448 4.51302 6.59375 4.45312C6.76302 4.39062 6.95964 4.35938 7.18359 4.35938C7.51693 4.35938 7.80729 4.42969 8.05469 4.57031C8.30208 4.70833 8.49219 4.90885 8.625 5.17188C8.76042 5.4349 8.82812 5.75391 8.82812 6.12891C8.82812 6.53255 8.7513 6.88021 8.59766 7.17188C8.44661 7.46354 8.23047 7.6875 7.94922 7.84375C7.67057 8 7.33854 8.07812 6.95312 8.07812C6.66927 8.07812 6.40495 8.02604 6.16016 7.92188C5.91797 7.81771 5.70573 7.66146 5.52344 7.45312C5.34115 7.24479 5.19922 6.98438 5.09766 6.67188C4.99609 6.35677 4.94531 5.98828 4.94531 5.56641ZM6.9375 7.32031C7.23438 7.32031 7.47266 7.22396 7.65234 7.03125C7.83464 6.83594 7.92578 6.53776 7.92578 6.13672C7.92578 5.8112 7.84505 5.55339 7.68359 5.36328C7.52474 5.17318 7.28516 5.07812 6.96484 5.07812C6.74609 5.07812 6.55469 5.125 6.39062 5.21875C6.22656 5.3125 6.09896 5.43099 6.00781 5.57422C5.91927 5.71745 5.875 5.86328 5.875 6.01172C5.875 6.16276 5.89714 6.3151 5.94141 6.46875C5.98568 6.6224 6.05208 6.76432 6.14062 6.89453C6.22917 7.02214 6.33984 7.125 6.47266 7.20312C6.60547 7.28125 6.76042 7.32031 6.9375 7.32031ZM13.3828 5.14062C13.3828 5.60156 13.3464 6.01432 13.2734 6.37891C13.2031 6.74089 13.0911 7.04818 12.9375 7.30078C12.7839 7.55339 12.5833 7.74609 12.3359 7.87891C12.0885 8.01172 11.7891 8.07812 11.4375 8.07812C10.9974 8.07812 10.6341 7.96224 10.3477 7.73047C10.0612 7.49609 9.84896 7.16016 9.71094 6.72266C9.57292 6.28255 9.50391 5.75521 9.50391 5.14062C9.50391 4.52604 9.56641 4 9.69141 3.5625C9.81901 3.1224 10.0247 2.78516 10.3086 2.55078C10.5924 2.31641 10.9688 2.19922 11.4375 2.19922C11.8802 2.19922 12.2448 2.31641 12.5312 2.55078C12.8203 2.78255 13.0339 3.11849 13.1719 3.55859C13.3125 3.99609 13.3828 4.52344 13.3828 5.14062ZM10.4297 5.14062C10.4297 5.6224 10.4609 6.02474 10.5234 6.34766C10.5885 6.67057 10.6953 6.91276 10.8438 7.07422C10.9922 7.23307 11.1901 7.3125 11.4375 7.3125C11.6849 7.3125 11.8828 7.23307 12.0312 7.07422C12.1797 6.91536 12.2865 6.67448 12.3516 6.35156C12.4193 6.02865 12.4531 5.625 12.4531 5.14062C12.4531 4.66146 12.4206 4.26042 12.3555 3.9375C12.2904 3.61458 12.1836 3.3724 12.0352 3.21094C11.8867 3.04688 11.6875 2.96484 11.4375 2.96484C11.1875 2.96484 10.9883 3.04688 10.8398 3.21094C10.694 3.3724 10.5885 3.61458 10.5234 3.9375C10.4609 4.26042 10.4297 4.66146 10.4297 5.14062Z" fill="#898989"/>
<line x1="24.5" y1="1" x2="24.5" y2="268" stroke="#898989"/>
<line x1="22" y1="0.5" x2="27" y2="0.5" stroke="#898989"/>
<line x1="22" y1="40.5" x2="27" y2="40.5" stroke="#898989"/>
<line x1="22" y1="81" x2="27" y2="81" stroke="#65BB64" stroke-width="2"/>
<line x1="22" y1="126.5" x2="27" y2="126.5" stroke="#898989"/>
<line x1="22" y1="206.5" x2="27" y2="206.5" stroke="#898989"/>
<line x1="22" y1="246.5" x2="27" y2="246.5" stroke="#898989"/>
<line x1="22" y1="186.5" x2="27" y2="186.5" stroke="#898989"/>
<line x1="22" y1="226.5" x2="27" y2="226.5" stroke="#898989"/>
<line x1="22" y1="166.5" x2="27" y2="166.5" stroke="#898989"/>
<line x1="22" y1="146.5" x2="27" y2="146.5" stroke="#898989"/>
<line x1="22" y1="101.5" x2="27" y2="101.5" stroke="#898989"/>
<line x1="22" y1="60.5" x2="27" y2="60.5" stroke="#898989"/>
<line x1="22" y1="20.5" x2="27" y2="20.5" stroke="#898989"/>
<line x1="9" y1="256.5" x2="428.228" y2="256.5" stroke="#898989"/>
<line x1="47.5889" y1="259" x2="47.5889" y2="254" stroke="#898989"/>
<line x1="236.193" y1="259" x2="236.193" y2="254" stroke="#898989"/>
<line x1="298.735" y1="259" x2="298.735" y2="254" stroke="#898989"/>
<line x1="359.322" y1="259" x2="359.322" y2="254" stroke="#898989"/>
<line x1="427.728" y1="259" x2="427.728" y2="254" stroke="#898989"/>
<line x1="172.673" y1="259" x2="172.673" y2="254" stroke="#898989"/>
<line x1="109.154" y1="259" x2="109.154" y2="254" stroke="#898989"/>
<path d="M45.6455 268.445C45.6455 268.784 45.5622 269.076 45.3955 269.32C45.2315 269.565 44.9945 269.753 44.6846 269.883C44.3773 270.013 44.0101 270.078 43.583 270.078C43.3747 270.078 43.1755 270.066 42.9854 270.043C42.7953 270.02 42.6156 269.986 42.4463 269.941C42.2797 269.895 42.1273 269.839 41.9893 269.773V268.891C42.2211 268.992 42.4802 269.085 42.7666 269.168C43.0531 269.249 43.3448 269.289 43.6416 269.289C43.8838 269.289 44.0843 269.258 44.2432 269.195C44.4047 269.13 44.5245 269.039 44.6026 268.922C44.6807 268.802 44.7198 268.663 44.7198 268.504C44.7198 268.335 44.6742 268.191 44.583 268.074C44.4919 267.957 44.3539 267.85 44.169 267.754C43.9867 267.655 43.7575 267.549 43.4815 267.438C43.294 267.362 43.1143 267.276 42.9424 267.18C42.7731 267.083 42.6221 266.97 42.4893 266.84C42.3565 266.71 42.251 266.556 42.1729 266.379C42.0974 266.199 42.0596 265.988 42.0596 265.746C42.0596 265.423 42.1364 265.147 42.2901 264.918C42.4463 264.689 42.6651 264.513 42.9463 264.391C43.2302 264.268 43.5609 264.207 43.9385 264.207C44.238 264.207 44.5192 264.238 44.7823 264.301C45.0479 264.363 45.3083 264.452 45.5635 264.566L45.2666 265.32C45.0323 265.224 44.8044 265.147 44.583 265.09C44.3643 265.033 44.1403 265.004 43.9112 265.004C43.7133 265.004 43.5453 265.034 43.4073 265.094C43.2692 265.154 43.1638 265.238 43.0909 265.348C43.0205 265.454 42.9854 265.582 42.9854 265.73C42.9854 265.897 43.0258 266.038 43.1065 266.152C43.1898 266.264 43.3174 266.367 43.4893 266.461C43.6638 266.555 43.8877 266.659 44.1612 266.773C44.4763 266.904 44.7432 267.04 44.962 267.184C45.1833 267.327 45.3526 267.499 45.4698 267.699C45.587 267.897 45.6455 268.146 45.6455 268.445ZM50.4229 265.676V270H49.7002L49.5752 269.418H49.5245C49.4333 269.566 49.3174 269.69 49.1768 269.789C49.0362 269.885 48.8799 269.957 48.708 270.004C48.5362 270.053 48.3552 270.078 48.1651 270.078C47.8396 270.078 47.5609 270.023 47.3291 269.914C47.1 269.802 46.9242 269.63 46.8018 269.398C46.6794 269.167 46.6182 268.867 46.6182 268.5V265.676H47.5401V268.328C47.5401 268.664 47.6078 268.915 47.7432 269.082C47.8812 269.249 48.0948 269.332 48.3838 269.332C48.6625 269.332 48.8838 269.275 49.0479 269.16C49.212 269.046 49.3278 268.876 49.3955 268.652C49.4659 268.428 49.501 268.154 49.501 267.828V265.676H50.4229ZM53.9932 265.594C54.4802 265.594 54.8591 265.72 55.1299 265.973C55.4034 266.223 55.5401 266.625 55.5401 267.18V270H54.6221V267.352C54.6221 267.016 54.5531 266.764 54.4151 266.598C54.2771 266.428 54.0635 266.344 53.7745 266.344C53.3552 266.344 53.0635 266.473 52.8995 266.73C52.738 266.988 52.6573 267.362 52.6573 267.852V270H51.7393V265.676H52.4541L52.583 266.262H52.6338C52.7276 266.111 52.8435 265.987 52.9815 265.891C53.1221 265.792 53.2784 265.717 53.4502 265.668C53.6247 265.618 53.8057 265.594 53.9932 265.594Z" fill="#898989"/>
<path d="M105.694 270L104.05 265.23H104.014C104.022 265.337 104.031 265.483 104.042 265.668C104.052 265.853 104.061 266.051 104.069 266.262C104.077 266.473 104.081 266.674 104.081 266.867V270H103.229V264.289H104.546L106.128 268.848H106.151L107.788 264.289H109.1V270H108.206V266.82C108.206 266.646 108.208 266.457 108.214 266.254C108.221 266.051 108.229 265.858 108.237 265.676C108.248 265.493 108.255 265.348 108.261 265.238H108.229L106.522 270H105.694ZM114.339 267.828C114.339 268.188 114.292 268.507 114.198 268.785C114.104 269.064 113.968 269.299 113.788 269.492C113.608 269.682 113.392 269.828 113.139 269.93C112.887 270.029 112.602 270.078 112.284 270.078C111.987 270.078 111.715 270.029 111.468 269.93C111.22 269.828 111.005 269.682 110.823 269.492C110.643 269.299 110.504 269.064 110.405 268.785C110.306 268.507 110.257 268.188 110.257 267.828C110.257 267.352 110.339 266.948 110.503 266.617C110.669 266.284 110.906 266.03 111.214 265.855C111.521 265.681 111.887 265.594 112.311 265.594C112.71 265.594 113.061 265.681 113.366 265.855C113.671 266.03 113.909 266.284 114.081 266.617C114.253 266.951 114.339 267.354 114.339 267.828ZM111.202 267.828C111.202 268.143 111.24 268.413 111.315 268.637C111.393 268.861 111.513 269.033 111.675 269.152C111.836 269.27 112.044 269.328 112.3 269.328C112.555 269.328 112.763 269.27 112.925 269.152C113.086 269.033 113.205 268.861 113.28 268.637C113.356 268.413 113.393 268.143 113.393 267.828C113.393 267.513 113.356 267.246 113.28 267.027C113.205 266.806 113.086 266.638 112.925 266.523C112.763 266.406 112.554 266.348 112.296 266.348C111.915 266.348 111.638 266.475 111.464 266.73C111.289 266.986 111.202 267.352 111.202 267.828ZM117.647 265.594C118.134 265.594 118.513 265.72 118.784 265.973C119.057 266.223 119.194 266.625 119.194 267.18V270H118.276V267.352C118.276 267.016 118.207 266.764 118.069 266.598C117.931 266.428 117.718 266.344 117.429 266.344C117.009 266.344 116.718 266.473 116.554 266.73C116.392 266.988 116.311 267.362 116.311 267.852V270H115.393V265.676H116.108L116.237 266.262H116.288C116.382 266.111 116.498 265.987 116.636 265.891C116.776 265.792 116.932 265.717 117.104 265.668C117.279 265.618 117.46 265.594 117.647 265.594Z" fill="#898989"/>
<path d="M168.594 270H167.652V265.086H165.981V264.289H170.262V265.086H168.594V270ZM174.813 265.676V270H174.09L173.965 269.418H173.914C173.823 269.566 173.707 269.69 173.567 269.789C173.426 269.885 173.27 269.957 173.098 270.004C172.926 270.053 172.745 270.078 172.555 270.078C172.229 270.078 171.951 270.023 171.719 269.914C171.49 269.802 171.314 269.63 171.192 269.398C171.069 269.167 171.008 268.867 171.008 268.5V265.676H171.93V268.328C171.93 268.664 171.998 268.915 172.133 269.082C172.271 269.249 172.484 269.332 172.774 269.332C173.052 269.332 173.274 269.275 173.438 269.16C173.602 269.046 173.718 268.876 173.785 268.652C173.856 268.428 173.891 268.154 173.891 267.828V265.676H174.813ZM177.852 265.594C178.237 265.594 178.568 265.673 178.844 265.832C179.12 265.991 179.332 266.216 179.481 266.508C179.629 266.799 179.703 267.148 179.703 267.555V268.047H176.817C176.827 268.466 176.939 268.789 177.152 269.016C177.369 269.242 177.671 269.355 178.059 269.355C178.335 269.355 178.582 269.329 178.801 269.277C179.022 269.223 179.25 269.143 179.484 269.039V269.785C179.268 269.887 179.048 269.961 178.824 270.008C178.6 270.055 178.332 270.078 178.02 270.078C177.595 270.078 177.221 269.996 176.899 269.832C176.578 269.665 176.327 269.418 176.145 269.09C175.965 268.762 175.875 268.354 175.875 267.867C175.875 267.383 175.957 266.971 176.121 266.633C176.285 266.294 176.516 266.036 176.813 265.859C177.109 265.682 177.456 265.594 177.852 265.594ZM177.852 266.285C177.563 266.285 177.328 266.379 177.149 266.566C176.971 266.754 176.867 267.029 176.836 267.391H178.805C178.802 267.174 178.766 266.983 178.695 266.816C178.628 266.65 178.524 266.52 178.383 266.426C178.245 266.332 178.068 266.285 177.852 266.285Z" fill="#898989"/>
<path d="M235.627 264.289L234.135 270H233.111L232.158 266.578C232.135 266.495 232.109 266.396 232.08 266.281C232.051 266.167 232.023 266.049 231.994 265.93C231.968 265.81 231.945 265.701 231.924 265.602C231.906 265.5 231.893 265.422 231.885 265.367C231.88 265.422 231.868 265.499 231.85 265.598C231.831 265.697 231.809 265.806 231.783 265.926C231.76 266.043 231.734 266.16 231.705 266.277C231.676 266.392 231.65 266.493 231.627 266.582L230.689 270H229.67L228.182 264.289H229.123L229.947 267.637C229.973 267.743 229.999 267.859 230.025 267.984C230.054 268.107 230.08 268.23 230.104 268.355C230.13 268.48 230.153 268.603 230.174 268.723C230.195 268.84 230.212 268.947 230.225 269.043C230.238 268.944 230.255 268.835 230.275 268.715C230.296 268.592 230.318 268.469 230.342 268.344C230.368 268.216 230.394 268.094 230.42 267.977C230.449 267.859 230.477 267.754 230.506 267.66L231.436 264.289H232.35L233.299 267.672C233.327 267.768 233.355 267.876 233.381 267.996C233.41 268.116 233.437 268.238 233.463 268.363C233.489 268.488 233.512 268.609 233.533 268.727C233.554 268.844 233.571 268.949 233.584 269.043C233.602 268.915 233.626 268.77 233.654 268.605C233.683 268.441 233.715 268.275 233.752 268.105C233.788 267.936 233.825 267.78 233.861 267.637L234.682 264.289H235.627ZM238.064 265.594C238.45 265.594 238.781 265.673 239.057 265.832C239.333 265.991 239.545 266.216 239.693 266.508C239.842 266.799 239.916 267.148 239.916 267.555V268.047H237.029C237.04 268.466 237.152 268.789 237.365 269.016C237.581 269.242 237.883 269.355 238.271 269.355C238.548 269.355 238.795 269.329 239.014 269.277C239.235 269.223 239.463 269.143 239.697 269.039V269.785C239.481 269.887 239.261 269.961 239.037 270.008C238.813 270.055 238.545 270.078 238.232 270.078C237.808 270.078 237.434 269.996 237.111 269.832C236.791 269.665 236.54 269.418 236.357 269.09C236.178 268.762 236.088 268.354 236.088 267.867C236.088 267.383 236.17 266.971 236.334 266.633C236.498 266.294 236.729 266.036 237.025 265.859C237.322 265.682 237.669 265.594 238.064 265.594ZM238.064 266.285C237.775 266.285 237.541 266.379 237.361 266.566C237.184 266.754 237.08 267.029 237.049 267.391H239.018C239.015 267.174 238.979 266.983 238.908 266.816C238.84 266.65 238.736 266.52 238.596 266.426C238.458 266.332 238.281 266.285 238.064 266.285ZM242.404 270.078C241.889 270.078 241.475 269.891 241.162 269.516C240.852 269.138 240.697 268.582 240.697 267.848C240.697 267.105 240.855 266.544 241.17 266.164C241.488 265.784 241.906 265.594 242.424 265.594C242.643 265.594 242.834 265.624 242.998 265.684C243.162 265.741 243.303 265.819 243.42 265.918C243.54 266.017 243.641 266.128 243.725 266.25H243.768C243.755 266.169 243.739 266.053 243.721 265.902C243.705 265.749 243.697 265.607 243.697 265.477V263.922H244.619V270H243.9L243.736 269.41H243.697C243.619 269.535 243.52 269.648 243.4 269.75C243.283 269.849 243.143 269.928 242.979 269.988C242.817 270.048 242.626 270.078 242.404 270.078ZM242.662 269.332C243.055 269.332 243.333 269.219 243.494 268.992C243.656 268.766 243.739 268.426 243.744 267.973V267.852C243.744 267.367 243.666 266.996 243.51 266.738C243.354 266.478 243.068 266.348 242.654 266.348C242.324 266.348 242.071 266.482 241.896 266.75C241.725 267.016 241.639 267.387 241.639 267.863C241.639 268.34 241.725 268.704 241.896 268.957C242.071 269.207 242.326 269.332 242.662 269.332Z" fill="#898989"/>
<path d="M293.625 270H292.683V265.086H291.011V264.289H295.293V265.086H293.625V270ZM296.992 263.922V265.449C296.992 265.608 296.987 265.763 296.976 265.914C296.969 266.065 296.959 266.182 296.949 266.266H297C297.091 266.115 297.203 265.991 297.336 265.895C297.469 265.796 297.617 265.721 297.781 265.672C297.948 265.622 298.125 265.598 298.312 265.598C298.643 265.598 298.924 265.654 299.156 265.766C299.388 265.875 299.565 266.046 299.687 266.277C299.812 266.509 299.875 266.81 299.875 267.18V270H298.957V267.352C298.957 267.016 298.888 266.764 298.75 266.598C298.612 266.428 298.398 266.344 298.109 266.344C297.83 266.344 297.609 266.402 297.445 266.52C297.284 266.634 297.168 266.805 297.097 267.031C297.027 267.255 296.992 267.529 296.992 267.852V270H296.074V263.922H296.992ZM304.929 265.676V270H304.207L304.082 269.418H304.031C303.94 269.566 303.824 269.69 303.683 269.789C303.543 269.885 303.386 269.957 303.215 270.004C303.043 270.053 302.862 270.078 302.672 270.078C302.346 270.078 302.067 270.023 301.836 269.914C301.607 269.802 301.431 269.63 301.308 269.398C301.186 269.167 301.125 268.867 301.125 268.5V265.676H302.047V268.328C302.047 268.664 302.114 268.915 302.25 269.082C302.388 269.249 302.601 269.332 302.89 269.332C303.169 269.332 303.39 269.275 303.554 269.16C303.719 269.046 303.834 268.876 303.902 268.652C303.972 268.428 304.008 268.154 304.008 267.828V265.676H304.929Z" fill="#898989"/>
<path d="M355.322 270H354.393V264.289H357.619V265.078H355.322V266.859H357.471V267.645H355.322V270ZM360.756 265.594C360.829 265.594 360.908 265.598 360.994 265.605C361.08 265.613 361.154 265.624 361.217 265.637L361.131 266.496C361.076 266.48 361.008 266.469 360.928 266.461C360.85 266.453 360.779 266.449 360.717 266.449C360.553 266.449 360.396 266.477 360.248 266.531C360.1 266.583 359.968 266.664 359.854 266.773C359.739 266.88 359.649 267.014 359.584 267.176C359.519 267.337 359.486 267.525 359.486 267.738V270H358.564V265.676H359.283L359.408 266.438H359.451C359.537 266.284 359.644 266.143 359.771 266.016C359.899 265.888 360.045 265.786 360.209 265.711C360.376 265.633 360.558 265.594 360.756 265.594ZM362.936 265.676V270H362.018V265.676H362.936ZM362.482 264.02C362.623 264.02 362.744 264.057 362.846 264.133C362.95 264.208 363.002 264.339 363.002 264.523C363.002 264.706 362.95 264.836 362.846 264.914C362.744 264.99 362.623 265.027 362.482 265.027C362.337 265.027 362.213 264.99 362.111 264.914C362.012 264.836 361.963 264.706 361.963 264.523C361.963 264.339 362.012 264.208 362.111 264.133C362.213 264.057 362.337 264.02 362.482 264.02Z" fill="#898989"/>
<path d="M424.395 268.445C424.395 268.784 424.312 269.076 424.145 269.32C423.981 269.565 423.744 269.753 423.434 269.883C423.127 270.013 422.76 270.078 422.333 270.078C422.124 270.078 421.925 270.066 421.735 270.043C421.545 270.02 421.365 269.986 421.196 269.941C421.029 269.895 420.877 269.839 420.739 269.773V268.891C420.971 268.992 421.23 269.085 421.516 269.168C421.803 269.249 422.095 269.289 422.391 269.289C422.634 269.289 422.834 269.258 422.993 269.195C423.154 269.13 423.274 269.039 423.352 268.922C423.43 268.802 423.47 268.663 423.47 268.504C423.47 268.335 423.424 268.191 423.333 268.074C423.242 267.957 423.104 267.85 422.919 267.754C422.736 267.655 422.507 267.549 422.231 267.438C422.044 267.362 421.864 267.276 421.692 267.18C421.523 267.083 421.372 266.97 421.239 266.84C421.106 266.71 421.001 266.556 420.923 266.379C420.847 266.199 420.809 265.988 420.809 265.746C420.809 265.423 420.886 265.147 421.04 264.918C421.196 264.689 421.415 264.513 421.696 264.391C421.98 264.268 422.311 264.207 422.688 264.207C422.988 264.207 423.269 264.238 423.532 264.301C423.798 264.363 424.058 264.452 424.313 264.566L424.016 265.32C423.782 265.224 423.554 265.147 423.333 265.09C423.114 265.033 422.89 265.004 422.661 265.004C422.463 265.004 422.295 265.034 422.157 265.094C422.019 265.154 421.914 265.238 421.841 265.348C421.77 265.454 421.735 265.582 421.735 265.73C421.735 265.897 421.776 266.038 421.856 266.152C421.94 266.264 422.067 266.367 422.239 266.461C422.414 266.555 422.637 266.659 422.911 266.773C423.226 266.904 423.493 267.04 423.712 267.184C423.933 267.327 424.102 267.499 424.22 267.699C424.337 267.897 424.395 268.146 424.395 268.445ZM427.098 265.594C427.645 265.594 428.058 265.715 428.337 265.957C428.618 266.199 428.759 266.577 428.759 267.09V270H428.106L427.93 269.387H427.899C427.777 269.543 427.651 269.672 427.52 269.773C427.39 269.875 427.239 269.951 427.067 270C426.898 270.052 426.691 270.078 426.446 270.078C426.188 270.078 425.958 270.031 425.755 269.938C425.552 269.841 425.391 269.695 425.274 269.5C425.157 269.305 425.098 269.057 425.098 268.758C425.098 268.312 425.264 267.978 425.595 267.754C425.928 267.53 426.43 267.406 427.102 267.383L427.852 267.355V267.129C427.852 266.829 427.782 266.616 427.641 266.488C427.503 266.361 427.308 266.297 427.055 266.297C426.839 266.297 426.63 266.328 426.427 266.391C426.223 266.453 426.026 266.53 425.833 266.621L425.536 265.973C425.747 265.861 425.986 265.77 426.255 265.699C426.526 265.629 426.807 265.594 427.098 265.594ZM427.848 267.934L427.29 267.953C426.831 267.969 426.51 268.047 426.325 268.188C426.14 268.328 426.048 268.521 426.048 268.766C426.048 268.979 426.111 269.135 426.239 269.234C426.367 269.331 426.535 269.379 426.743 269.379C427.061 269.379 427.324 269.289 427.532 269.109C427.743 268.927 427.848 268.66 427.848 268.309V267.934ZM431.653 269.336C431.773 269.336 431.891 269.326 432.009 269.305C432.126 269.281 432.233 269.254 432.329 269.223V269.918C432.227 269.962 432.096 270 431.934 270.031C431.773 270.062 431.605 270.078 431.43 270.078C431.186 270.078 430.966 270.038 430.77 269.957C430.575 269.874 430.42 269.732 430.305 269.531C430.191 269.331 430.134 269.053 430.134 268.699V266.375H429.544V265.965L430.177 265.641L430.477 264.715H431.055V265.676H432.294V266.375H431.055V268.688C431.055 268.906 431.11 269.069 431.22 269.176C431.329 269.283 431.473 269.336 431.653 269.336Z" fill="#898989"/>
</svg>